<?xml version="1.0" encoding="UTF-8"?>
<svg id="Layer_2" data-name="Layer 2" xmlns="http://www.w3.org/2000/svg" viewBox="0 0 182.79 150.03">
  <path d="M.21,90.61l-.21-1.59c3.17,1.48,7.51,2.33,11.1,2.33,23.05,0,40.71-19.03,62.38-41.23l9.3-9.52h-13.53l.95-1.06h13.64L120.21,2.43h1.69c3.59,0,6.13-.95,7.4-2.43h1.59l-34.36,54.45c-7.72,12.48-9.94,15.23-9.94,18.82,0,2.43,1.48,3.38,3.7,3.38,5.92,0,10.68-5.81,17.66-16.18l2.01-2.96c.42-.32.85-.32,1.06,0l-2.01,2.96c-7.08,10.36-12.16,17.13-18.82,17.13-5.18,0-6.45-5.08-6.45-8.14,0-5.5,2.22-12.16,10.78-25.16l2.43-3.7h-12.58l-10.15,10.36c-22.1,22.52-40.18,41.66-63.01,41.66-3.91,0-7.61-.53-11-2.01ZM97.69,39.54L121.27,3.7h-.85l-35,35.84h12.26Z"/>
  <path d="M113.97,69.78c0-6.55,3.07-12.48,7.29-19.03l5.39-8.46-.32-.74h-4.76l-10.57,15.96c-.42.42-.85.42-1.06,0l11.21-16.92h13.22l.32.85-8.56,13.53c-8.88,13.96-10.26,15.96-10.26,18.5,0,1.9,1.16,2.96,3.17,2.96,4.76,0,8.67-5.82,13.64-13.53l3.49-5.39c.42-.21.85-.21,1.06,0l-3.7,5.71c-4.65,7.19-9.09,14.06-14.48,14.06-4.33,0-5.08-4.33-5.08-7.51ZM142.1,14.7h6.34l-5.18,7.72h-6.34l5.18-7.72Z"/>
  <path d="M76,143.26c0-15.86,25.38-40.07,56.57-57.2l24.63-39.44,8.88-4.97h-25.69l.63-1.06h41.76l-.63,1.06h-13.22l-24.63,39.54c3.07-1.38,6.24-2.75,9.52-3.91l.11.95c-3.28,1.27-6.98,2.85-10.68,4.55l-7.19,11.63c-15.54,24.95-34.68,55.61-52.86,55.61-5.07,0-7.19-2.33-7.19-6.77ZM82.56,148.97c12.69,0,24.11-21.36,44.83-54.56l4.12-6.66c-30.24,17.13-54.45,41.02-54.45,55.61,0,4.02,2.01,5.6,5.5,5.6Z"/>
</svg>