<?xml version="1.0" encoding="UTF-8"?>
<svg id="Layer_2" data-name="Layer 2" xmlns="http://www.w3.org/2000/svg" viewBox="0 0 699.5 297">
  <defs>
    <style>
      .cls-1 {
        fill: #ff0013;
      }

      .cls-2 {
        fill: #fff;
      }
    </style>
  </defs>
  <g>
    <polygon class="cls-2" points="455.16 114.81 443.7 151.1 448.59 154.57 449.43 148.32 459.73 117.86 458.48 113.24 455.16 114.81"/>
    <path class="cls-2" d="M441.85,119.79l3.16-4.03,2.71-2.98s4.56-5.05,9.41-3.72c.74.2,1.46.45,1.97.76,2.82,1.71,2.33,4.78,2.33,4.78l-2.05,5.47-3.47.71-3.34-5.16-2.89-1.16-7.83,5.32Z"/>
    <path class="cls-1" d="M459.58,110.14c.81.69,1.49.92,1.93,2.22.75,2.2.35,2.88.1,4.82-1.28,10.03-7.17,18.7-10.36,28.33-.22.66-.71,2.05-.83,2.62-.41,2.03,1.72,2.41,3.28,1.27.49-.36,2.24-2.25,2.7-2.81,2.74-3.34,4.78-7.61,6.88-11.39l1.45-.42c.26,1.63-.47,2.8-1.1,4.2-2.41,5.27-9.39,17.68-15.66,18.45-4.85.6-7.42-1.92-7.03-6.74.25-3.05,1.82-6.31,2.83-8.97,1.88-4.97,3.95-9.87,5.72-14.89.21-1.19-1.3-.94-1.96-1.36l2.73-1c.97-.82-.99-2.83-.72-3.15,2.03,2.43,2.9-1.38,3.09-3.09.35-3.2-3.38-2.8-5.29-1.39-6.02,4.47-13.86,19.04-16.07,26.2-1.22,3.95-.44,6.67-.93,10.25-.59,4.31-9.66,6.49-10.82.77-.34-1.65.88-5.52,1.43-7.29,2.3-7.34,5.31-14.21,7.64-21.59.51-1.63,1.48-4.37,1.72-6.02.19-1.27,0-2.65-1.26-3.3-.34,0-.51.22-.73.44-2.18,2.19-4.78,3.8-6.48,6.84l-4.69,8.35c-.26.13-.96.26-1.14.13-.65-.44,1.36-4.41,1.74-5.21.21-.43.63-1.19.9-1.73,1.33-2.59,4.2-6.1,3.93-8.95-.04-.4-.53-.7-.45-1.03.08-.31.54-.65.67-1.06.12-.36.01-1.15.07-1.21.12-.12,1.48.25,1.7-.45l.45-2.99c.24-.44.6-.15.68.18.23.91-.31,2.23.74,2.9,2.03-.87,3.99-3.07,6.31-3.38,2.65-.36,6.66.44,7.05,3.58.76,6.07-3.07,10.58-4.69,15.97-.17.55-.25,1.09-.19,1.67.71-.02,1.32-1.1,1.66-1.63,3.87-5.92,6.26-12.79,12.32-17.28,2.66-1.97,7.53-3.37,10.48-1.45.27.18.16.56.19.59-.1-.12-2.66-1.11-3-1.16-.97-.13-3.42.43-4.38.81-3.41,1.33-5.82,4.97-8.27,7.48l.16.89c1.57-2.07,4.43-5.85,7.4-4.67.15.06,2.38,1.57,2.7,1.83,3.92,3.09.54,6.95-.64,10.14-.45,1.22-.55,2.66-1,3.87-1.81,4.83-7.15,15.12-6.09,19.87.19.83.99,1.78,1.82,1.09,1.02-.84-.05-1.5-.15-2.19-.85-5.85,3.75-13.85,5.98-18.99,2.06-4.75,2.17-8.62,3.62-13.23.43-1.37,1.59-2.95,2.71-3.87-.65-.3-.67-1.64-.86-1.86ZM436.83,114.92c.81-.85,1.22-1.45,2.36-2.09-1.1-5.42-6.83-4.26-10.26-1.64-.82.63-5.64,5.49-4.9,6.41l3.04-1.81c.85-1.4,1.4-1.83,3.1-1.6.98.13,2.99,2.14,3.45,3.13.28.61.1,1.92,1.01,1.72.18-.94.59-2.28,1.09-3.07.42-.67.75-.66,1.11-1.04ZM434.35,119.89c-.79-.16-.49.2-.69.58-2.09,3.87-2.25,7.3-3.35,11.28-1.13,4.12-3.88,8.33-3.98,12.78.37-.18.7-1.17.86-1.57,1.44-3.66,2.42-7.71,4.91-10.85.38-.48,1.19-.74,1.36-1.23.29-.83-.48-.47-.56-1.09-.15-1.16-.27-4.58.58-5.24l.87-4.66ZM457.28,146.83l-3.7,3.32-.6.97c.25.24,1.84-.89,2.12-1.17s1.49-1.76,1.81-2.17c.22-.28.56-.2.36-.95Z"/>
    <path class="cls-1" d="M435.79,77.19c-2.46-.17-5.38.17-7.53,1.44-3.9,2.29-6.49,12.68-7.92,17.08-4.85,14.9-9.8,29.9-14.28,45.04-.67,2.26-2.13,6.53-2.35,8.54-.14,1.3-.26,3.39.85,4.26,2.05.98,4.22.92,6.41,1.27l.04,1.48-28.82.12-.52-.61.43-.98,6.53-1.14c4.49-2.03,5.83-7.31,7.31-11.61,2.13-6.19,3.82-12.57,5.85-18.8,3.18-9.78,6.48-19.82,9.43-29.54,1.06-3.5,4.63-11.13,2.97-14.44-.39-.78-2.93-1.96-3.77-2.09s-3.04.26-3.44-.29c-.56-.77.39-1.36,1.15-1.46,5.08-.66,10.95.88,16.08.6,3.5-.19,7.05-1.03,10.61-.6,1.22.15,1.01.61.99,1.73ZM429.62,76.33h-16.91c-.06,0-.52.48-.43.57.73.06,1.61.54,2.19.97.38.28,2.92,3.81,3.21,4.38.6,1.18.73,2.22.62,3.53,1.21-1.12,1.97-2.68,3.29-3.73.78-.61,1.92-1.01,2.7-1.6,1.75-1.31,3.24-3.46,5.75-3.57,0-.18-.33-.55-.43-.57ZM400.24,143.39c1.11-1.05,1.15-3.07,1.57-4.31,4.62-13.6,9.25-27.34,13.39-41.06.84-2.8,1.57-5.66,2.24-8.5-.6.45-1.01,1.6-1.28,2.3-3.58,9.3-6.19,20.14-9.24,29.73-1.79,5.64-4.16,11.22-5.72,16.92-.42,1.53-.85,3.37-.95,4.92Z"/>
    <path class="cls-2" d="M436.83,114.92c-.36.38-.7.37-1.11,1.04-.5.8-.91,2.13-1.09,3.07-.91.2-.72-1.11-1.01-1.72-.46-.99-2.47-3-3.45-3.13-1.71-.23-2.25.2-3.1,1.6l-3.04,1.81c-.74-.92,4.08-5.78,4.9-6.41,3.44-2.63,9.16-3.79,10.26,1.64-1.14.64-1.56,1.24-2.36,2.09Z"/>
    <path class="cls-2" d="M434.35,119.89l-.87,4.66c-.85.66-.73,4.08-.58,5.24.08.62.86.25.56,1.09-.17.49-.97.74-1.36,1.23-2.49,3.14-3.47,7.19-4.91,10.85-.16.41-.49,1.39-.86,1.57.1-4.45,2.85-8.66,3.98-12.78,1.1-3.99,1.26-7.41,3.35-11.28.2-.38-.09-.74.69-.58Z"/>
    <path class="cls-2" d="M457.28,146.83c.2.75-.15.67-.36.95-.32.41-1.53,1.9-1.81,2.17s-1.87,1.41-2.12,1.17l.6-.97,3.7-3.32Z"/>
    <path class="cls-2" d="M429.62,76.33c.1.02.44.39.43.57-2.51.1-4,2.26-5.75,3.57-.78.58-1.93.98-2.7,1.6-1.32,1.04-2.08,2.6-3.29,3.73.1-1.32-.02-2.36-.62-3.53-.29-.57-2.84-4.1-3.21-4.38-.57-.43-1.45-.91-2.19-.97-.09-.09.37-.57.43-.57h16.91Z"/>
    <path class="cls-2" d="M400.24,143.39c.1-1.54.53-3.39.95-4.92,1.56-5.7,3.93-11.28,5.72-16.92,3.05-9.59,5.66-20.44,9.24-29.73.27-.7.68-1.85,1.28-2.3-.67,2.84-1.4,5.71-2.24,8.5-4.13,13.73-8.77,27.47-13.39,41.06-.42,1.23-.45,3.26-1.57,4.31Z"/>
  </g>
  <g>
    <polygon class="cls-2" points="590.23 112.96 590.31 118.94 589.51 128.47 586.57 139.52 590.31 141.43 596.91 122.79 604.14 110.76 605.13 109.48 604.43 108.59 603.42 108.78 602.63 109.36 600.51 111.04 596.76 112.18 593.56 116.98 592.28 114.79 590.23 112.96"/>
    <polygon class="cls-2" points="641.76 113.53 631 149.53 635.83 155.54 637.51 145.18 647.09 118.24 646.05 111.84 641.76 113.53"/>
    <path class="cls-2" d="M628.95,120.58l3.16-5.03,2.71-2.98s4.58-4.94,9.43-3.6,4.27,5.43,4.27,5.43l-2.05,5.47-3.47.71-3.34-5.16-2.89-1.16-7.83,6.32Z"/>
    <path class="cls-2" d="M547.3,109.36c1.9-.15,3.23-.84,5.29-.56,1.78.25,3.58,1.37,4.89,2.57.75.68-.07.57-.12,1.27-.09,1.34.76,2.87-.46,4.46l-.31.26-.92-.32c-1.22-10.79-9.07-7.81-13.93-1.35-4.39,5.84-5.92,10.77-8.41,17.38-1.33,3.53-1.68,7.92-.92,11.66.27,1.31,1,1.68,1.38,2.33.3.52.72,2.58,1.59,2.4l1.03-1.13c.89,2.32,3.92,2.76,6.17,2.7,2.7-.07,5.24-.95,7.88-1.27-.43.71-1.73,1.29-2.52,1.64-2.55,1.12-6.12,1.81-9.1,1.52-5.52-.53-7.83-7.78-7.88-12.49-.01-1.58.83-4.18.89-6,.04-1.21-.44-2.12-.24-3.37.76-4.73,7.66-15.55,11.25-18.85.78-.72,2.52-1.62,3.02-2.29.4-.17,1.07-.45,1.43-.57Z"/>
    <path class="cls-2" d="M624.42,109.36c.07.04.68,1.05.87,1.27-.42,1.49-2.78,5.62-1.27,6.74.51.38,1.56-.35,1.25,1.43-.65.37-1.75-.22-2.23.06-.08.05-.44.92-.67,1.2-1.42,1.78-2.99,5.98-2.54,8.35.13.71.79.59.87.91.46,1.83-.42,1.3-1.18,1.92-2.15,1.77-3.81,7.08-4.86,9.75-.18.44-.35.8-.27,1.3-.48.07-.31-.69-.29-1.01.15-3,2.14-6.03,2.96-8.8.69-2.32,1.34-5.19,1.91-7.32.47-1.78.83-3.71,1.17-5.52-2.1.03.32-1.59-.06-3.23-.72-3.15-3.79-2.66-6.25-2.21.43-2.18,2.68-2.79,3.73-4.3.94-.32,3.34-1.06,4.19-1.15.14-.02,2.57.51,2.69.58Z"/>
    <path class="cls-1" d="M638.18,109.93c.07-.1-.18-.42.18-.59,2.62-1.19,5.65-1.25,8.22.01.25.12,2.27,2.53,2.37,2.85.4,1.27-.2,4.85.25,5.48l1.31.41c0,.21-1.39.02-1.85,1.02-.07.14-.66,2.08-.68,2.2-.06.51.28.93.24,1.32,0,.08-1.03,1.02-1.13,1.28-1.51,3.79-2.84,7.97-4.31,11.68-1.57,3.94-4.12,7.85-4.19,12.18,1.86,1.11,2.4.89,3.99-.35,2.73-2.12,6.01-8.8,7.75-11.88.47-.84,1.9-1.67,1.85.04-.03,1.36-.72,1.89-1.07,2.67-2.59,5.78-9.65,18.39-16.55,18.93-4.88.38-7.44-2.81-6.68-7.54.49-3.07,3.57-9.64,4.85-12.92,1.8-4.65,4.29-9.19,5.37-14.12.26-1.19.67-2.95-.35-3.79h-5.16c-1.25,0-8.26,11-9.15,12.63-2.58,4.74-5.39,11.41-5.91,16.74-.25,2.63.9,5.93-1.54,7.77-2.94,2.21-8.9,2.08-9.57-2.39-.56-3.72,3.44-13.11,4.82-17.05,1.64-4.64,4.37-10.26,5.47-15.22.12-.54.46-1.45.12-1.93l-1.31-.55,1.69-.03c.51-1.25.08-2.33-1.25-2.72-.61-.02-2.22.95-2.63,1.42-.59.67-.51,1.4-.84,1.89-.3.45-1.36,1.22-1.95,2.07-5.52,7.95-11.98,29.4-18.78,34.04-3.61,2.46-9.05,1.92-9.77-3-.22-1.48.93-6.32,1.44-7.93.07-.23.45-.22.52-.45.26-.79,1.8-4.89,1.46-5.22l-1.1.05-6.23,9.96c-1.73,1.71-3.26,4.2-5.15,5.74-.7.57-3.15,1.62-3.24,1.77-.16.26,0,.77-.05,1.1l-1.72-.17-.58,1.6-1.32-1.7-1.54.56c-.07-1.36-1.68-1.9-2.58-3.02-.7-.88-2.3-4.19-2.3-5.15v-5.87c-2.53,2.35-4.89,5.29-7.59,7.45-6.89,5.53-19.22,10.31-24.29-.09-1.55-3.19-1.5-10.37-.77-14.07.11-.56,1.31-3.71,1.12-3.9-1.43.1-2.95.55-4.3,1-1.51.5-8.35,3.5-8.86,4.67-.44.99-.58,2.56-.9,3.57-2.89,9.03-5.85,18.69-8.88,27.85-4.46,13.47-9.34,26.95-14.77,40.13.12,1.04.47.77,1.31.43l-.44,1.73,1.87.85-1.99.87c-.38.45,1.24,2.49-.02,2.16-.44-.12-1-.87-1.58-.18-.33,1.17.24,2.56-.85,3.45l-.72-2.58c-.52-.4-6.11,10.34-6.63,11.21-4.42,7.37-10.36,16.12-17.76,20.71-3.78,2.35-10.68,5.66-15.23,4.16-.25-.08-.24-.42-.45-.53-7.24-3.59-6.54-14.63-5.15-21.58,2.72-13.56,10.52-26.66,18.07-37.83,11.69-17.29,25.57-32.92,41.03-46.94,6.16-20.86,14.07-42.03,20.31-63.37.67-1.78,2.87-1.94,4.13-3.18.26-.26.21-.8.44-.99.67-.57,3.65-.88,3.37-2.65h-33.54l.57-2.58h59.34c0,.95-.19,2.36-1.3,2.57l-19.58.06-7.69,22.54c-2.53,10.46-7.23,21.22-10.4,31.5-.4,1.31-.73,3.27-1.02,4.66.89.24,1.17-.67,1.51-.85.84-.43,2.12-.69,2.94-1.01,2.67-1.03,5.12-1.91,7.95-2.52.87-1.49,1.27-3.16,2.04-4.7,3.13-6.25,8.49-13.19,14.95-15.86-.5.67-2.24,1.57-3.02,2.29-3.59,3.3-10.5,14.12-11.25,18.85-.2,1.25.28,2.16.24,3.37-.06,1.83-.9,4.43-.89,6,.04,4.71,2.35,11.96,7.88,12.49,2.98.29,6.55-.4,9.1-1.52.79-.35,2.09-.93,2.52-1.64-2.64.32-5.18,1.2-7.88,1.27-2.25.06-5.28-.38-6.17-2.7l-1.03,1.13c-.87.18-1.28-1.88-1.59-2.4-.38-.66-1.11-1.02-1.38-2.33-.77-3.74-.41-8.12.92-11.66,2.49-6.62,4.02-11.54,8.41-17.38,4.85-6.46,12.71-9.44,13.93,1.35l.92.32.31-.26c1.22-1.59.37-3.12.46-4.46.05-.69.87-.58.12-1.27-1.31-1.19-3.11-2.32-4.89-2.57-2.05-.29-3.39.41-5.29.56.57-.19,1.31-.75,1.88-.84,4.02-.66,10.31,1.26,11,5.87,1.65,11.11-14.45,16.91-22.68,19.63-.2.14-.88.97-.94,1.14-.18.52-.72,3.26-.75,3.85-.07,1.57.75,2.88.59,4.45h1.72c-.43,1.58-.31,1.58.86,2.57-1.88.52-.46,1.3-.31,1.66.28.68.04,1.03.73,1.8,1.22,1.36,4.55,1.07,6.25.78,7.48-1.26,11.82-4.98,14.44-11.93,3.71-9.8,8.07-20.65,17.2-26.93,5.23-3.6,10.59-4.74,14.3,1.39l1.28-.57c.02.86.23,1.71.5,2.52.12.38-.12.76.5.63.78-.31.87-2.23,1.5-2.87.96-.99,3.56-1.09,5.01-1.79.85-.41,1.3-.95,2.23-1.35-.13.13-.15.56-.37.77-1.42,1.32-3.72,2.02-5.6,2.43.07,2.26-1.89,3.5-2.94,5.37-1.01.41-1.82-2.61-2.4-3.13-.38-.33-.58-.22-.69.19-.1.38-.38,3.6-.32,3.96.15.88,1.55,2.18,1.94,3.23.99,2.72-.62,7.2-1.99,9.64-.95,1.69-3.57,3.42-1.24,5.35.52.11,1.22-1.33,1.42-1.72,1.58-3.12,2.03-7.09,3.21-10.26,1.07-2.87,5.19-9.24,7.17-11.72.63-.78,3.67-3.38,3.8-3.96.25-1.04-1.49-.35-2-.13.84-.88.89-1.06,2.39-.87.9.79.02,2-.41,2.93-.97,2.07-2.98,4.97-3.4,7.28-.06.33.28.79.22.93-.04.08-1.14.72-1.35,1.13-1.58,3.01-3.7,9.03-4.75,12.38-.72,2.29-1.13,4.48-1.71,6.6-.51,1.89-1.63,4.3-1.85,6.18-.11.92-.4,3.38.67,3.56,1.38.01,3.24-2.99,3.93-4.11,5.66-9.19,8.72-20.58,14.87-29.49,1.63-2.37,3.53-5.01,6.3-5.95-1.04,1.51-3.3,2.11-3.73,4.3,2.46-.45,5.53-.94,6.25,2.21.38,1.65-2.04,3.26.06,3.23-.34,1.8-.7,3.73-1.17,5.52-.56,2.13-1.22,5-1.91,7.32-.82,2.77-2.81,5.8-2.96,8.8-.02.32-.19,1.08.29,1.01-.07-.51.1-.86.27-1.3,1.05-2.67,2.71-7.99,4.86-9.75.76-.62,1.64-.1,1.18-1.92-.08-.32-.74-.2-.87-.91-.45-2.37,1.12-6.58,2.54-8.35.23-.29.59-1.15.67-1.2.49-.28,1.59.31,2.23-.06.32-1.78-.74-1.05-1.25-1.43-1.51-1.12.84-5.26,1.27-6.74-.19-.22-.8-1.23-.87-1.27.62.3,1.11.23,1.71,1.08.37.53,1.28,2.59,1.35,3.12.19,1.54-1.89,4.54,1.4,4.36,1.19-.06,3.87-4.17,4.85-5.14,1.46-1.45,2.5-2.3,4.45-2.85-.6.81-1.94,1.5-2.73,2.28-.9.89-1.65,1.89-2.43,2.88,1.12-.29,2.08-1.63,3.29-1.74,1.4-.13,4.55,1.39,4.96,2.8.6,2.06.66,5.91.07,7.98-1.78,6.25-5.66,13.28-7.16,19.49-.34,1.41-.65,2.92.42,4.14l2.24-8.64c2.87-5.37,4.16-12.91,6.95-17.98.36-.65,1.07-.83,1.36-1.79.1-.34.75-3.35.75-3.53.02-.52-.63-1.01-.56-1.97s.71-2.25,1.36-2.9c-.14-.21-1.07-1.46-1.16-1.49-.47-.16-.95-.04-1.43-.16-.31-.08-.58-.45-.97-.51-.32-.05-4.29.96-4.99,1.15ZM527.41,87.75c2.28-3.69,4.74-8.81,7.21-12.14.37-.49.76-.7,1.22-1.07-.27-.42-.55-.4-.98-.44-2.77-.3-5.87.15-8.61.3-.74.04-1.78-.39-2.72,0l4.16.57c1.2.1,4.63-.53,4.17,1.53-.08.34-4.94,3.66-5.65,4.15-.45.31-3.09,1.67-3.19,1.82-.06.09-.32,1.82-.29,2.04.11.75,1.2,1.6,1.5,2.23,1.37,2.92-.39,5.8-1.17,8.52-3.97,13.91-9.18,30.59-14.4,43.83-.9,2.28-3.6,7.57-3.98,9.44-.14.72.54,2.55.23,3.51l2.51-5.37c1.16-5.48,4.36-10.58,5.78-15.72,2.68-9.7,5.42-18.56,8.54-28.14,1.21-3.7,2.13-8.69,3.61-12.15.55-1.3,1.51-1.99,2.09-2.93ZM563.93,139.88c-.15,1.48,0,3.34,0,4.87,0,.05.39.45.57.43.07-4.27.72-8.25,2.24-12.23,2.17-5.69,7.41-15.73,12.04-19.56,2.33-1.93,5.23-4.19,8.44-3.09l2.52,1.21c-.81-1.62-3.95-3.01-5.57-2.71-6.43,1.2-10.02,6.79-13.18,12.05-2.91,4.85-6.49,13.43-7.05,19.03ZM552.08,111.19c-3.41-1.79-7.01,2.42-8.73,4.95-2.48,3.65-4.54,8.54-5.53,12.81-.19.81-1.1,1.65-.28,2.62,1.93,1.36,8.72-2.83,10.39-4.18,2.24-1.81,4.96-6.16,5.37-9.04.23-1.56.3-6.37-1.23-7.18ZM587.93,112.02c-1.73-1.41-5.23.39-6.78,1.52-7.23,5.24-12.88,23.2-12.35,31.78.17,2.83.27,4.5,3.59,4.17,1.65-.16,3.86-2.12,5.02-3.3,3.52-3.6,10.67-16.09,11.41-21,.1-.68-.3-1.19-.19-1.86.11-.72,1.53-2.12.53-2.94-.41-.34-1.98-.59-2.58-.72l2.56-1.04-.84-2.83.86-.15c-.12-1-.43-2.99-1.23-3.64ZM633.02,115.38c-.41-.4-1.59,1.54-1.43,1.72.45-.02,1.54-1.61,1.43-1.72ZM638.13,115.7c-.42-.24-4.19,1.06-3.96,2.25l4.59-.57-.62-1.68ZM628.36,119.6c.28-.32.37-.94.35-1.36-.76.16-.97.76-1.42,1.29.25.5.8.38,1.07.07ZM626.14,122.83c-.49.04-1.03-.2-1.46.18-.67.59-2.96,6.16-2.55,6.69.31-.12.65-.24.88-.5.77-.9,2.46-4.1,2.98-5.25.17-.39.2-.72.16-1.13ZM588.01,147.18l.29-3.15c-.72.37-1.12,2.76-.29,3.15ZM535.83,145.75c-.66-.61-.79,1.28-.84,1.53,1.19,1.31,1.41-1.01.84-1.53ZM644.48,146.61l-3.37,3.15c-.84.43-1.82.71-2.07,1.72,2.56-.18,4.44-2.71,5.45-4.87ZM577.06,148.28l-.08-.81c-1.89,1.83-4.08,3.03-6.82,2.51-.65-.12-1.74-1.01-2.18-.76-.05.68-1.03,1.14-1.14,1.6-.22.96.65,1.4-1.2,2.29-.67,2.64,3.08,3.15,3.05,1.37,0-.48-.84-1.59-.47-2.43,3.58.25,6.25-1.56,8.83-3.77ZM595.39,149.13c.11-.16.2-.76-.07-.8l-3.01,2.29c1.87.59,1.7-.1,2.45-1.13.14-.19.56-.25.63-.35ZM636.74,149.76c-.01.69-.09,1.36.71,1.44,1.27.13.96-.59.43-1.3-1.21-1.61-1.89-.15-3.15-1.58-.22.78-.61,1.64.28,2.15,1.15.67.74-.81,1.72-.72ZM494.74,167.15c1.25-3.88,2.4-7.81,3.64-11.71.21-.66,1.62-3.9,1.59-4.12-.18-1.45-1.89,1.09-2.11,1.31-14.28,14.07-26.24,27.92-37.24,44.86-7.13,10.98-20.51,35.07-16.08,48.25,2.72,8.09,10.3,6.03,15.84,2.08,11.75-8.37,19.04-34.19,23.59-47.77,3.65-10.91,7.31-22.17,10.78-32.92ZM504.3,154.92c-.62-.24-.93,1.1-1,1.43-.11.49-.21.93-.14,1.43.78-.57,1.15-1.96,1.14-2.86ZM500.29,167.24c-.87-.16-.44.26-.6.68-.76,1.98-1.63,4.38-1.69,6.49l2.29-7.16ZM487.58,206.99c2.01-6.55,4.71-13.21,6.45-19.78.19-.73.31-1.44.24-2.19l-5.73,16.48c-1.37,4.08-4.23,8.02-5.38,12.1-.26.91-.38,1.99-.36,2.93l2.72-3.15,1.72,1.71c.25.13,1.26-1.04,1.34-1.26.29-.74.24-1.68.23-2.46l-2.27.75-.59-.32c.57-1.41.73-3.09,1.16-4.51.06-.21.42-.24.45-.31Z"/>
    <path class="cls-1" d="M624.42,109.36c-.12-.07-2.56-.59-2.69-.58-.85.09-3.25.84-4.19,1.15.04-.06-.1-.38.05-.51.11-.11,2.67-.89,2.95-.93,1.9-.27,2.39.14,3.88.87Z"/>
    <path class="cls-1" d="M547.3,109.36c-.36.12-1.03.41-1.43.57.05-.06-.1-.44.02-.54.19-.15,1.04,0,1.41-.04Z"/>
    <path class="cls-1" d="M674.87,107.92l1.43-.29.02.83c3.12.34,6.53,1.32,8.58,3.91.24.3,1.73,2.68,1.75,2.84.18,1.52.16,3.67-1.05,4.71-1.67,1.45-4.56,1.34-5.83-.48-1.18-1.7-.81-3.4-1.78-5.03-.34-.57-2.54-3.03-3.09-2.16l-.32,3.41c-.4.42-.52-.03-.57-.42-.14-1.14.47-2.6-.75-3.29l-2.55,2-.71-.15c.17-.69,1.3-1.15,1.43-1.3.16-.18.07-.75-.42-.56-.18.07-1.25.92-1.45,1.13-5.58,5.87,3.98,15.91,6.72,21.16,4.26,8.18,2.84,17.98-6.37,21.88-5.73,2.42-13.78.8-17.23-4.66-.49-.78-1.51-3.57-1.6-4.45-.06-.62.88-3.18,1.34-3.57,2.14-1.79,5.35-.92,6.32,1.67.79,2.11.37,4.2,1.51,6.24,1.5,2.67,4.31,3.58,7.23,2.91.82-.19,2.76-1.42,3.07-2.15.48-1.17,1.04-3.58.9-4.81-.31-2.81-.95-4.22-2.28-6.38-4.2-6.82-9.79-12.97-8.65-21.71.07-.51.5-.37.58-.62.67-2.27,1.53-4.22,3.27-5.99.71-.72,1.92-1.18,2.64-2.09.31-.39.4-1.08.45-1.12.5-.43,5.34.45,3.98-2.05l2.02.16.56-2.17c.85.14.73,2.45.86,2.58ZM681.05,110.35c-1.51-.92-6-1.83-7.74-1.55-.95.15-4.06,1.09-4.92,1.53-5.02,2.53-5.42,8.98-3.82,13.77,1.69,5.05,5.22,9.09,7.73,13.63l.53-.38c-.64-1.86-1.24-4.11-2.19-5.84-.57-1.03-1.68-2-2.25-2.9-2.57-4.03-3.64-8-2.31-12.73,1.67-5.9,8.92-8,13.12-3.24,1.05,1.19,1.48,3.26,3.43,3.59.45-2.2.49-4.63-1.56-5.88ZM656.52,148.19v-4.73s-.47.09-.63-.02c-.4-.29-.1-.69-.88-.51-3.27.76-.82,4.33.79,5.69l.71-.43ZM665.12,155.21l-4.3-1.43c.94,1.44,2.39,1.68,3.94,1.94.55.09.34,0,.36-.51Z"/>
    <path class="cls-2" d="M527.41,87.75c-.58.94-1.53,1.63-2.09,2.93-1.48,3.46-2.4,8.46-3.61,12.15-3.13,9.58-5.86,18.44-8.54,28.14-1.42,5.14-4.62,10.24-5.78,15.72l-2.51,5.37c.31-.96-.37-2.79-.23-3.51.38-1.87,3.08-7.16,3.98-9.44,5.22-13.25,10.43-29.93,14.4-43.83.78-2.72,2.53-5.61,1.17-8.52-.3-.63-1.39-1.48-1.5-2.23-.03-.21.23-1.95.29-2.04.1-.15,2.75-1.52,3.19-1.82.72-.49,5.58-3.81,5.65-4.15.46-2.06-2.97-1.43-4.17-1.53l-4.16-.57c.94-.4,1.98.03,2.72,0,2.75-.15,5.84-.6,8.61-.3.43.05.71.02.98.44-.45.37-.85.58-1.22,1.07-2.47,3.33-4.93,8.45-7.21,12.14Z"/>
    <path class="cls-2" d="M563.93,139.88c.56-5.6,4.13-14.18,7.05-19.03,3.16-5.26,6.75-10.85,13.18-12.05,1.62-.3,4.76,1.09,5.57,2.71l-2.52-1.21c-3.21-1.1-6.1,1.16-8.44,3.09-4.63,3.83-9.86,13.87-12.04,19.56-1.52,3.98-2.17,7.96-2.24,12.23-.18.02-.57-.38-.57-.43,0-1.54-.15-3.39,0-4.87Z"/>
    <path class="cls-2" d="M487.58,206.99c-.02.07-.38.11-.45.31-.44,1.42-.6,3.1-1.16,4.51l.59.32,2.27-.75c0,.79.06,1.72-.23,2.46-.09.22-1.09,1.39-1.34,1.26l-1.72-1.71-2.72,3.15c-.03-.95.1-2.02.36-2.93,1.14-4.08,4.01-8.02,5.38-12.1l5.73-16.48c.07.76-.04,1.47-.24,2.19-1.75,6.57-4.44,13.23-6.45,19.78Z"/>
    <path class="cls-2" d="M577.06,148.28c-2.57,2.22-5.25,4.02-8.83,3.77-.37.84.46,1.95.47,2.43.03,1.78-3.72,1.27-3.05-1.37,1.85-.89.98-1.34,1.2-2.29.1-.46,1.09-.92,1.14-1.6.44-.26,1.53.63,2.18.76,2.73.52,4.92-.68,6.82-2.51l.08.81Z"/>
    <path class="cls-2" d="M626.14,122.83c.05.41.02.74-.16,1.13-.52,1.15-2.21,4.35-2.98,5.25-.22.26-.56.38-.88.5-.41-.53,1.88-6.11,2.55-6.69.43-.38.97-.14,1.46-.18Z"/>
    <path class="cls-2" d="M638.13,115.7l.62,1.68-4.59.57c-.23-1.19,3.54-2.49,3.96-2.25Z"/>
    <path class="cls-2" d="M644.48,146.61c-1,2.15-2.88,4.69-5.45,4.87.25-1.01,1.23-1.28,2.07-1.72l3.37-3.15Z"/>
    <path class="cls-2" d="M636.74,149.76c-.98-.09-.58,1.39-1.72.72-.89-.52-.5-1.37-.28-2.15,1.26,1.43,1.93-.03,3.15,1.58.53.71.84,1.42-.43,1.3-.8-.08-.73-.76-.71-1.44Z"/>
    <path class="cls-2" d="M500.29,167.24l-2.29,7.16c.07-2.11.93-4.5,1.69-6.49.16-.41-.27-.83.6-.68Z"/>
    <path class="cls-2" d="M595.39,149.13c-.07.1-.49.16-.63.35-.75,1.04-.59,1.72-2.45,1.13l3.01-2.29c.27.04.18.64.07.8Z"/>
    <path class="cls-2" d="M504.3,154.92c0,.91-.36,2.29-1.14,2.86-.07-.5.03-.95.14-1.43.08-.33.38-1.67,1-1.43Z"/>
    <path class="cls-2" d="M535.83,145.75c.57.52.35,2.84-.84,1.53.05-.25.18-2.14.84-1.53Z"/>
    <path class="cls-2" d="M628.36,119.6c-.28.31-.82.43-1.07-.07.45-.53.67-1.13,1.42-1.29.02.42-.07,1.05-.35,1.36Z"/>
    <path class="cls-2" d="M588.01,147.18c-.83-.39-.44-2.78.29-3.15l-.29,3.15Z"/>
    <path class="cls-2" d="M633.02,115.38c.11.1-.98,1.69-1.43,1.72-.16-.18,1.02-2.11,1.43-1.72Z"/>
    <path class="cls-2" d="M681.05,110.35c2.05,1.25,2.01,3.68,1.56,5.88-1.95-.33-2.38-2.4-3.43-3.59-4.2-4.76-11.45-2.66-13.12,3.24-1.33,4.73-.26,8.7,2.31,12.73.57.9,1.69,1.87,2.25,2.9.95,1.73,1.55,3.97,2.19,5.84l-.53.38c-2.51-4.54-6.04-8.58-7.73-13.63-1.6-4.79-1.2-11.23,3.82-13.77.87-.44,3.98-1.38,4.92-1.53,1.74-.28,6.23.63,7.74,1.55Z"/>
    <path class="cls-2" d="M656.52,148.19l-.71.43c-1.61-1.35-4.06-4.93-.79-5.69.77-.18.47.22.88.51.16.11.63-.01.63.02v4.73Z"/>
    <path class="cls-2" d="M665.12,155.21c-.02.5.19.6-.36.51-1.55-.26-3-.5-3.94-1.94l4.3,1.43Z"/>
  </g>
  <g>
    <path class="cls-2" d="M223.29,135.3l-2.6-5.26,2.6-9.39,4.48-6.25,3.56-3.33,1.71-.81s2.98-1.16,4.96-1.3c1.98-.14,5.99.4,5.99.4l4.43,3.36.28,12.37-3.18.2-3.71-12.96-2.54-1.64s-7.19.39-9.42,7.69c-2.23,7.3-4.43,16.25-4.43,16.25l-2.14.68Z"/>
    <path class="cls-2" d="M191.43,120.65l3.16-5.03,2.71-2.98s4.58-4.94,9.43-3.6c.74.2,1.43.34,1.94.64,2.82,1.71,2.33,4.78,2.33,4.78l-2.05,5.47-3.47.71-3.34-5.16-2.89-1.16-7.83,6.32Z"/>
    <polygon class="cls-2" points="178.99 47.57 173.5 54.46 176.75 55.02 177.76 56.93 155.06 96.95 150.33 101.99 147.38 110.49 134 134.07 136.77 138.63 194.09 44.31 192.94 43.95 191.69 44.67 189.58 45.77 186.26 47.05 178.99 47.57"/>
    <path class="cls-1" d="M191.19,44.92c.08-.05.65-1.32,1.07-1.43.69-.19,1.88.13,2.66,0,.46.45-3.93,7.19-4.51,8.24-12.31,22.31-25.53,43.92-38.18,65.92-2.85,4.96-6.22,10.55-8.73,15.57-1.21,2.43,1.08.68,1.25.83l-1.1,2.53.81.47-1.12.9.27.96-1.55-.03-.17.89c-.78.37-.91-.58-1-.58-1.07.02-2.35,2.57-2.83,3.48-1.53,2.93-2.91,6.25-1.83,9.5.25.75,2.2,2.27,3.01,2.44,1.31.27,3.4,0,4.73-.3,6.01-1.36,11.68-9.32,15.12-14.18,5.87-8.27,10.69-17.24,16.16-25.77.22-.34,1.09-.3.74-1.37-.13-.38-1.33-.47-.84-1.02.22-.24,1.79-.21,2.29-.44s.61-.85.97-1.2c.13-.13.58,0,.78-.26.68-.87-.59-1.78-.59-2.69.28-.28,2.15,1.51,3.26,1.12l1.61-3.12.63,2.8c1.31.91,2.14-.29,3.38-.51l-.25,1.67c1.68.43,1.67,2.01,3.1,2.79-.84,1.7-.55,3.69-1.04,5.51-.88,3.26-3.3,6.83-4.3,10.03-.24.77-.45,1.53-.38,2.34,2.73-3.16,4.43-7.11,6.76-10.58,3.28-4.88,8.91-12.07,15.61-10.79,1.1.21,1.05.28,1.7,1.02-2.83-.76-6.22-.61-8.59,1.01-.9.61-7.62,6.98-6.89,7.87,3.09-2.15,4-5.73,8.47-5.18.36.04,2.66,2.02,2.99,2.46l1.72,3.29c.6-2.49,1.88-4.36,2.9-6.65.16-.36,1.03-.24.34-1.6-.24-.47-.71-.51-.86-.72-.14-.19-.05-.46-.08-.49,3.47.93,2.97,6.22,2.49,8.94-1.67,9.55-8.36,19.05-10.43,27.97-.81,3.5.41,4.61,3.41,2.35,1.48-1.12,4.86-6.19,5.94-7.96.97-1.58,1.77-3.91,2.72-5.4.73-1.15,2.01-.95,1.88.59-.09,1.04-.89,1.61-1.12,2.11-1.96,4.22-7.67,14.77-11.7,17.25-3.31,2.03-8.54,3.24-10.68-.99-1.64-3.25,1.08-9.75,2.32-13.09,2.34-6.3,6.87-14.78,8.49-21.38.27-1.11.66-3.21-.11-4.09-2.52-1.59-7.39,2.97-8.97,4.84-5.49,6.51-11.95,19.35-12.9,27.73-.18,1.57.26,3.72-.02,5.14-.03.13-.97,1.81-1.05,1.88-.23.21-2.83,1.57-3.16,1.64-8.24,1.67-6.85-5.69-5.22-10.95,2.48-8.03,7.44-18.27,9.15-25.86.05-.22.26-2.61.23-2.75-.71-3.54-4.63,1.35-5.49,2.41-7.96,9.81-16.85,30.5-28.22,35.41-7.19,3.11-14.43-.31-14.98-8.36-.89-13.04,4.9-22.66,10.64-33.46l6-9.68h-15.62c-1.04,0-2.84,1.96-3.6,2.72-24.32,24.41-54.51,66.82-89.64,73.73-7.01,1.38-17.42,1.44-24.21-1.18-1.88-.73-2.33-1.59-1.94-3.61,1.27-.31,2.19.76,3.27,1.14,5.25,1.84,12.23,2.38,17.79,1.72,34-4.03,62.05-40.2,84.06-64.2,1.6-1.74,3.61-3.34,5.21-5.1,1.32-1.45,2.22-3.39,4.03-4.36-.16-.64-.78-.54-1.27-.58-4.81-.42-11.36,1.45-16.36.59-.34-.06-.51-.16-.71-.43l.91-1.23,20.17-1.19c13.71-15.01,27.22-30.31,41.1-45.24l.61-1.32-.88-.6c-.02-.33,3.55-1.06,3.88-3.01.17-.99-.87-1.91-1.02-2.87l2.58.45c.34-1.15,1.41-.92,2.02-1.51.59-.56.97-1.85.85-2.66h.86s.17,1.75.17,1.75c.45.32,2.52.34,3.14.26,1.64-.2,6.47-1.47,7.87-2.3-.88.44-1.68,1.21-2.82,1.63-3,1.1-5.8.84-8.87,1.45l-5.23,5.95.14.42c1.59-.5,3.99-4.23,5.43-5.17.35-.23.57-.35,1.02-.27.57,2.35-2.62,4.22-2.75,6.01-.09,1.17.93.91,1.04,1.35.3,1.19-1.07,4.52-1.67,5.72-3.59,7.17-8.79,15.59-13,22.53-2.27,3.75-5.94,10.3-8.67,13.39-1.41,1.6-3.41,2.7-4.89,4.27l.38,3.61c-2.75,7.03-7.59,13.19-10.89,20-1.08,2.23-2.27,4.88-2.53,7.35,1.99-1.81,2.8-5.09,4.04-7.51,2.58-5.01,5.79-9.84,8.49-14.79.7-1.28,1.18-3.29,1.82-4.42.72-1.26,2.77-3.07,3.7-4.45,9.29-13.73,16.08-30.25,25.52-43.98l11.75-13.26c-.2-1.31-1.27.1-1.36.14-.21.1-.54-.04-.65.01ZM176.28,56.11c-1.14-.83-1.76-.04-2.74.85-3.61,3.31-8.03,8.81-11.46,12.61-6.13,6.79-11.9,13.67-17.97,20.45-3.3,3.68-6.8,7.26-10.15,10.89l-.12.91c5.26.24,10.56.3,15.79-.29l20.6-34.48c1.52-3.92,4.54-7,6.05-10.94ZM139.59,92.78c-.3-.3-1.48,1.02-1.73,1.28-1.94,2.03-6.34,7.73-8.4,8.8-.32.17-.68.21-1.04.25l.12,1.14c.28.33.34.34.73.14.19-.1,2.46-1.63,2.57-1.73.51-.52.84-1.96,1.44-2.57l6.31-7.31ZM187.64,110.38c-.48-.39-1.15-.86-1.77-.96-5.22-.86-8.21,2.21-10.45,6.43.68.36,1.35-.65,2-.87s1.66-.23,2.39-.38c1.59,1.62,3.5,1.4,3.65,4.12.11,2.01-2.04,5.76-2.64,7.97-.78,2.88-.55,6.23-2.3,8.6l-1.67,5.63c.76.15.5-.16.7-.57.96-1.95,1.42-4.48,2.5-6.4.52-.93,2.93-3.04,3.07-3.55.16-.61-.77-2.15-.8-3.13-.04-1.27,2.52-9.83,3.2-11.06.97-1.76,5.34-3.2,2.12-5.82ZM205.23,123.44c-.76-.16-.49.19-.71.56-2.02,3.46-3.92,8.89-5.32,12.75-.49,1.35-3.33,8.88-2.57,9.61h.86c1.16-8.08,6.03-15.01,7.74-22.93ZM207.73,146.88l-.06-.79c-1.18,1.56-2.33,2.99-4.1,3.93-.97.51-2.57.54-2.64,1.52,3.53.85,4.61-2.82,6.8-4.65ZM18.85,177.95l-4.53-.91c.97.8,3.19,1.55,4.45,1.71.79.1.16-.34.08-.8Z"/>
    <path class="cls-1" d="M314.07,88.69c-1.35,4-3.63,8.53-5.16,12.74-3.52,9.7-6.57,20.07-9.75,30.09-1.48,4.68-4.57,11.1-4.78,15.86-.12,2.89,1.06,3.31,3.41,1.69,5.7-3.93,10.93-20.75,14.41-27.43,2.52-4.83,7.51-13.76,13.81-13.36,2.52.16,4.06,1.87,5.08,3.83.12,2.22-.41,4.39-.98,6.52-2.63,9.79-7.65,19.59-9.67,29.61l.28,1.41c.94,1.32,4-1.52,4.62-2.33,5.06-6.67,9.22-17.43,13.76-24.8,4.29-6.97,14.82-17.59,23.78-12.65.88.49,3.28,3.21,3.7,4.03.1.19.89,3.22.89,3.4,0,.2-.68,3.4-.8,3.79-.34,1.09-2.58,4.4-3.54,5.06-3.35,2.29-7.56.51-6.55-3.92.05-.21.44-.21.54-.43.69-1.43.42-.78,1.31-1.77.53-.58,1.19-1.57,1.86-1.74.1-.17-.43-.55-.64-.64-.58-.24-1.51,0-1.65-.5.58-.13,2.16-.28,2.51-.66.1-.11.02-.49.15-.67.57-.78,1.11-.46.71-2.19-.52-2.25-2.86-2.85-4.89-2.43-3.15.66-7.1,6.05-8.5,8.76-3.57,6.93-6.61,19.05-4.89,26.8.04.2.44.18.54.42.24.59.09.89.6,1.64.97,1.43,2.76,1.94,4.43,1.86,5.15-.22,9.02-6.63,11.61-10.25l3.21-6.32,1.12.07c.59.4-.15,2.46-.39,3.08-3.47,9.02-15.07,26.46-26.47,18.17-5.35-3.89-4.31-12.13-4.11-17.79.01-.32.18-1.09-.3-1.01l-4.05,8.36-3.24,5.28c-2.8,4.08-7.94,9.28-13.26,6.03-4.2-2.57-1.12-9.13,0-12.56,2.39-7.34,6.54-16.65,8.2-24.18.4-1.82.63-4.35-1.98-3.41s-5.89,8.23-7.03,10.73c-3.99,8.76-6.41,17.39-12.47,25.28-2.63,3.42-8.01,6.48-12.24,4.29-3.71-1.92-2.51-7.21-1.5-10.5.27-.87,1.12-2.28,1.29-3.01.09-.4-.23-.61-.59-.59-1.17,1.37-2.31,2.87-3.57,4.17-5.9,6.03-17.49,15.32-25.96,8.73-7.29-5.67-4.24-19.57-1.11-26.9,3.71-8.72,15.25-23.62,26.17-18.78,5.81,2.58,5.2,9.14,1.87,13.57-4.6,6.12-13.48,8.53-20.29,11.24-.71.48-1.34,1.31-1.6,2.12-.56,1.71-.45,7.14-.26,9.12.58,6.28,8.27,5.3,12.57,3.47,4.28-1.83,10.16-6.64,12.89-10.39,3.53-4.84,5.61-15.03,7.57-21.02,1.61-4.94,3.44-9.83,4.98-14.8.83-2.68,2.71-7.56,2.92-10.27.39-5.12-4.71-2.05-7.81-2.73-.64-.21-.59-1.15-.33-1.68.54-.92,3.28-.46,4.3-.57,1.96-.22,4.28-.6,6.11-1.06,2.3-.57,4.57-1.32,6.75-1.9.85-.23,1.88-1.36,2.94-.51,1.07.85-.07,2-.34,2.87-.16.55-.03,1.11-.21,1.66ZM314.45,84.76l-12.9,3.15c.22.92,1.24.66,1.74,1.05.15.12,2.05,3.07,2.12,3.26,1.28,3.75-1.7,8.92-2.8,12.36-2.03,6.31-3.83,12.71-5.92,19.02-2.08,6.29-6.86,16.29-6.33,22.64.04.5-.06.94.45,1.27.69.14.41-.56.43-1,.16-4.09,1.19-5.97,2.34-9.7,3.48-11.29,6.85-23.25,10.65-34.64,1.06-3.19,2.09-6.36,3.94-9.18s4.33-3.79,6.07-7.42c.1-.21.39-.37.22-.83ZM328.68,109.81c-4.47-2.13-8.7.67-10.79,4.61.59.31,1.15-.36,1.85-.38,1.43-.04,2.68.8,3.59,1.82,2.07,2.31,1.28,4,.48,6.78-1.84,6.47-4.96,13.01-6.7,19.66-.55,2.09-1.01,3.91-.36,6.08.46-.05.6-1.11.67-1.47,1.59-8,4.57-15.56,6.99-23.11.82-2.56,1.03-5.01,2.32-7.42.86-1.61,3.04-3.95,2.62-5.9,0-.05-.63-.65-.67-.67ZM281.77,119.72c.94-1.84,1.97-3.37,1.74-5.59-.07-.65-.4-.99-.51-1.5-.08-.35.15-.73,0-1.14-.89-2.4-6.07-2.31-8.12-1.96-8.01,1.36-15.79,15.36-16.88,22.67-.29,1.97-.23,4.42-.3,6.43l1.22-3.5c2.82-2.38,1.62-4.67,2.23-7.18.05-.21.48-.18.55-.41.93-3.6,2.18-5.78,4.32-8.8,2.6-3.67,9.96-12.57,14.33-6.52,1.6,2.21,1.3,4.04,1.14,6.5-.02.31-.18,1.09.29,1.01ZM355.73,109.69c-3.96.19-7.73,3.45-10.02,6.53-5.53,7.42-7.44,13.67-8.05,22.84-.23,3.42.49,8.46,2.98,10.94,3.52,3.51,8.68,3.58,12.65.67.51-.37,3.13-2.89,3.3-3.29.15-.34-.08-.57-.42-.42-.49.21-1.83,1.89-2.37,2.29-3.45,2.53-6.73,2.26-10.75,1.36-1.96-.44-3.29-3.33-3.78-5.1-2.84-10.19,5.22-27.27,13.51-33.47.36-.27,3.52-1.86,2.96-2.34ZM361.38,109.78c-.7-.25-1.49-.03-2.21-.09-.17.88.67.46,1.3.84,1.51.91,1.96,2.79,1.86,4.47-.04.62-.7,3.03-.93,3.67-.16.46-1.08.73-1.5,1.37-.25.37-1.23,2.94-1.03,3.13,2.63.12,5.89-3.42,6.29-5.89.32-1.98-.95-5.08-2.4-6.45-.12-.11-1.31-1-1.39-1.03ZM277.37,123.63c1.51-2.56,2.89-8.05,1.75-10.86-.76-1.87-3.82-2.65-3.65.07-2.02-.97-4.23,1.52-5.45,3.01-2.18,2.68-4.46,8-5.6,11.3-1,2.91-1.99,5.81,2.46,4.46,3.31-1,8.74-5.01,10.49-7.99ZM275.3,127.86c1.07-.86,2.39-1.86,2.74-3.27-1.23.92-2.23,2.14-3.38,3.15-.36.32-1.43.8-1.49.87-.16.18-.06.76.42.56.44-.18,1.29-.97,1.7-1.31ZM362.04,138.92h-.57s-.29,1.43-.29,1.43c.6-.24.97-.78.86-1.43ZM303.19,144.58c.14-.26.08-.52.08-.79-2.25,2.58-4.2,6.3-8.02,6.89v.85c1.72.27,2.51-.22,3.74-1.28,1.14-.99,3.52-4.41,4.2-5.66ZM282.63,144.94c-1.38.13-2.62,1.28-3.79,2.01-2.99,1.87-6.63,4.12-10.4,4.29-1,.04-5.87-.46-6.74-.7-1.74-.5-2.4-2.75-3.57-3.88-.21-.05-.19.29-.14.42.96,2.3,1.81,3.89,4.14,5.03,5.33,2.59,13.7-1.27,17.98-4.61.85-.66,1.84-1.7,2.52-2.56ZM324.77,149.24c-.6.28-3,1.1-2.86,1.86.11.63.66.23.96.1.31-.14,2.24-1.65,1.91-1.96Z"/>
    <path class="cls-1" d="M233.04,110.26c1.47-.98,5.25-1.93,7.05-1.98,1.04-.03,1.7.68,2.83-.32,1.12,1.33,2.96,2.3,4.52,3.18.19.1.19.51.41.56,1.66.38,4.22-2.29,6.1-2.72,2.65-.6,5.33-.22,6.24,2.63-.74,2.95-3.11,3.71-5.83,2.69-2.1-.79-2.72-2.77-5.29-.87,1.12,2.26,2.01,4.75,2.03,7.3.06,8.72-6.14,18.18-14.36,21.2-2.79,1.03-10.23,1.89-11.96,3.66-.06.06-.87,1.47-.88,1.56-.24,1.52,3.03,2.94,4.19,3.45,5.2,2.27,15.91,4,19.26,8.54,1.86,2.53,1.52,7.23-.27,9.74-5.07,7.07-21.5,7.88-29.36,6.41-3.96-.74-9.5-2.3-12.05-5.72-4.06-5.44.57-10.02,5.78-11.67.51-.16,1.13.04,1.61-.07.22-.05.18-.51.39-.56.99-.22,2.75-.07,3.94-.32.74-.15,1.34-.69,2.17-.55.43-.38-1.74-1.47-2.06-1.74-4.42-3.69-1.91-8.11,2.57-10.22,2.58-1.21,3.85-1.23,6.49-1.54.66-.08,1.23-.47,1.89-.55-.64-1.05-2.11-.97-3.03-1.41-2.4-1.15-5.46-5.93-5.83-8.5-1.3-9.06,4.7-18.07,12.23-22.17.38-.11.88.06,1.22,0-6.3,4.21-7.87,8.72-9.53,15.84-.24,1.05-1.45,2.46-1.52,3.21-.17,1.87,1.83,2.65,2.59,4.16.11-3.19-.02-6.65.86-9.74,1.07-3.75,7.01-12.19,11.06-13.3,5.5-1.51,8.11,3.19,9.54,7.61l1.04,4.83c.23-1.4.73-3.09.75-4.49.02-1.18-.81-3.87-.32-4.69.2-.34,1.16-.11.44-.71-.43-.36-.98-.42-1.31-.7-.72-.61-.85-1.2-1.9-1.82-3.25-1.93-8.18-.95-11.71-.19ZM258.55,111.12c.14-1.86-2.75-1.96-4.03-1.59-.96.28-1.31,1.41-2.28,1.3l3.29.86c1.48.41,1.61-.93,3.02-.58ZM240.21,113.41c.83-3.2-2.63-2.52-4.49-1.33-6.09,3.91-8.7,16.23-8.12,22.96.27,3.19,1.44,5.87,5.17,5.17,7.7-1.43,10.55-15.89,10.03-22.37-.12-1.5-.67-2.9-.93-4.37l-1.66-.06ZM226.15,135.77l-.57.14c-.22.96,1.14,2.64,1.86,3.3.32.29.49.68,1.01.56l-2.3-4.01ZM235.9,139.78l-1.8.58c-.67.3-.05,1.42.63.65l1.17-1.23ZM233.33,140.93c-1.65-.08-2.97-.16-4.59-.57.72,1.55,2.21,1.47,3.73,1.3.52-.06,1.04-.08.86-.73ZM225.3,143.79c-.66.08-1.47-.14-2.09,0-.2.05-.19.46-.42.54-.7.24-3.61,1.08-3.79,1.91-.18.8.43.55.62,1.08.26.7.13,1.48.4,2.18.44,1.17,1.83,2.59,2.18,3.68,5.63,2.3,12.95,3.67,18.16,6.65.56.32,2.87,2.45,3.29,2.01.4-1.94-1.14-2.53-2.02-3.58-.22-.26-.2-.72-.37-.91-.31-.35-1.05-.58-1.34-1.1-.07-.21.93,0,.57-.71-1.48-.26-2.64-1.05-4.07-1.52-2.89-.94-6.58-1.34-9.16-2.25-1.29-.45-1.23-.32-2.65-.55-3.12-.52-3.28-3.34-1.59-5.57l2.29-1.86ZM216.12,157.83c-3.9.06-9.01,1.6-8.33,6.46.09.61.25,1.05.87,1.27.45-2.51,2.05-4.65,4.21-5.97.96-.59,2.49-.84,3.25-1.76ZM240.96,168.91c2.05-3.84-2.51-5.6-5.19-6.78-7.07-3.11-15.95-7.11-22.66-1.15-2.43,2.16-2.58,5.25-.32,7.64,4.81,5.1,19.99,5.91,25.76,2.66.22-.12,2.32-2.2,2.41-2.37ZM218.99,173.02l-8.88-5.44c-.64.7,2.85,3.2,3.46,3.56,1.64.97,2.41.92,4.08,1.32.18.04.41.97,1.35.56Z"/>
    <path class="cls-1" d="M348.56,94.21l-2.46.84c-3.66.71-7.62-.53-10.89,1.45l.16,2.01-3.17-.16-.98,9.91c-.62.02-.45-7.41-1.01-8.31-.43-.32-5.05,5.49-5.3,6.3l-1.29.29,3.46-6.42c-1.83-.69,1.32-2.64.71-3.61-.1-.15-2.59-1.07-2.9-1.12-1.89-.3-4.29.19-6.26-.04-.4-.05-1.46-.23-.89-.84.29-.31,5.53-.72,6.52-.93,1.08-.22,1.99-.8,3.09-.79l-.58-2.86,3.02.89c1.11-1.02.44-5.79,1.42-7.2l.97,6.71c.24.38.83.16,1.16,0,1.04-.47,4.12-4.01,4.97-5.07.8-1,1.37-2.84,2.63-3.08.34.42-.24,1.36-.46,1.77-.9,1.68-3.07,4.21-3.67,5.9-.78,2.2.08,2.94,2.14,3.49.68.18,4.35.88,4.86.88h4.73ZM336.52,88.77c-.15-.16-1.55,1.1-1.73,1.27-.49.48-1.07,1.49-1.66,1.86-.9.57-5.88,2.05-6.07,2.31.22.87,1.18.72,1.7,1.02,1.16.66.86,2.43.88,3.56.39.44,3.23-2.57,3.61-2.98.21-.22.15-.72.56-1.01.7-.49,2.12-.12,2.71-1.03l-1.72-1.99,1.72-3.01Z"/>
    <path class="cls-2" d="M187.64,110.38c3.22,2.63-1.15,4.06-2.12,5.82-.68,1.23-3.24,9.79-3.2,11.06.03.98.96,2.53.8,3.13-.14.51-2.55,2.62-3.07,3.55-1.08,1.92-1.54,4.45-2.5,6.4-.2.41.06.72-.7.57l1.67-5.63c1.75-2.37,1.52-5.73,2.3-8.6.6-2.21,2.75-5.96,2.64-7.97-.15-2.73-2.06-2.5-3.65-4.12-.73.15-1.72.14-2.39.38s-1.32,1.23-2,.87c2.23-4.22,5.23-7.29,10.45-6.43.62.1,1.29.57,1.77.96Z"/>
    <path class="cls-2" d="M205.23,123.44c-1.71,7.91-6.58,14.85-7.74,22.93h-.86c-.77-.73,2.08-8.27,2.57-9.61,1.39-3.86,3.3-9.29,5.32-12.75.22-.37-.05-.72.71-.56Z"/>
    <path class="cls-2" d="M139.59,92.78l-6.31,7.31c-.6.6-.93,2.05-1.44,2.57-.11.11-2.38,1.64-2.57,1.73-.39.2-.44.19-.73-.14l-.12-1.14c.35-.04.71-.08,1.04-.25,2.06-1.07,6.46-6.77,8.4-8.8.25-.26,1.42-1.58,1.73-1.28Z"/>
    <path class="cls-2" d="M207.73,146.88c-2.18,1.82-3.27,5.49-6.8,4.65.07-.98,1.67-1,2.64-1.52,1.77-.94,2.92-2.37,4.1-3.93l.06.79Z"/>
    <path class="cls-2" d="M18.85,177.95c.08.46.72.9-.08.8-1.26-.16-3.49-.91-4.45-1.71l4.53.91Z"/>
    <path class="cls-2" d="M314.45,84.76c.17.46-.12.62-.22.83-1.74,3.63-4.16,4.49-6.07,7.42s-2.88,5.99-3.94,9.18c-3.79,11.38-7.17,23.35-10.65,34.64-1.15,3.73-2.18,5.61-2.34,9.7-.02.44.27,1.13-.43,1-.51-.33-.41-.77-.45-1.27-.52-6.35,4.25-16.36,6.33-22.64,2.09-6.3,3.89-12.71,5.92-19.02,1.11-3.44,4.08-8.62,2.8-12.36-.06-.18-1.96-3.13-2.12-3.26-.5-.4-1.52-.13-1.74-1.05l12.9-3.15Z"/>
    <path class="cls-2" d="M355.73,109.69c.56.48-2.6,2.07-2.96,2.34-8.29,6.2-16.35,23.27-13.51,33.47.49,1.77,1.82,4.67,3.78,5.1,4.02.9,7.3,1.17,10.75-1.36.54-.4,1.88-2.08,2.37-2.29.34-.15.57.08.42.42-.17.41-2.79,2.92-3.3,3.29-3.96,2.92-9.13,2.84-12.65-.67-2.49-2.48-3.21-7.52-2.98-10.94.61-9.17,2.52-15.41,8.05-22.84,2.29-3.07,6.06-6.33,10.02-6.53Z"/>
    <path class="cls-2" d="M328.68,109.81s.66.62.67.67c.41,1.95-1.76,4.28-2.62,5.9-1.29,2.42-1.5,4.86-2.32,7.42-2.41,7.54-5.39,15.1-6.99,23.11-.07.37-.21,1.43-.67,1.47-.64-2.17-.18-3.99.36-6.08,1.75-6.66,4.86-13.19,6.7-19.66.79-2.78,1.59-4.46-.48-6.78-.91-1.01-2.16-1.86-3.59-1.82-.7.02-1.26.69-1.85.38,2.09-3.94,6.32-6.74,10.79-4.61Z"/>
    <path class="cls-2" d="M281.77,119.72c-.48.08-.32-.7-.29-1.01.17-2.46.46-4.29-1.14-6.5-4.37-6.06-11.73,2.85-14.33,6.52-2.14,3.03-3.39,5.2-4.32,8.8-.06.24-.5.21-.55.41-.6,2.52.6,4.81-2.23,7.18l-1.22,3.5c.07-2.01,0-4.46.3-6.43,1.09-7.31,8.88-21.31,16.88-22.67,2.05-.35,7.22-.45,8.12,1.96.15.41-.08.78,0,1.14.11.51.45.85.51,1.5.23,2.22-.8,3.75-1.74,5.59Z"/>
    <path class="cls-2" d="M361.38,109.78c.08.03,1.27.92,1.39,1.03,1.45,1.37,2.72,4.47,2.4,6.45-.4,2.47-3.66,6.01-6.29,5.89-.2-.19.78-2.76,1.03-3.13.42-.63,1.34-.91,1.5-1.37.22-.64.89-3.04.93-3.67.1-1.67-.35-3.55-1.86-4.47-.63-.38-1.47.04-1.3-.84.72.06,1.51-.16,2.21.09Z"/>
    <path class="cls-2" d="M282.63,144.94c-.68.86-1.67,1.9-2.52,2.56-4.28,3.34-12.66,7.2-17.98,4.61-2.34-1.14-3.18-2.73-4.14-5.03-.05-.13-.08-.47.14-.42,1.17,1.13,1.84,3.38,3.57,3.88.87.25,5.74.75,6.74.7,3.77-.17,7.41-2.41,10.4-4.29,1.18-.74,2.42-1.89,3.79-2.01Z"/>
    <path class="cls-2" d="M303.19,144.58c-.68,1.25-3.06,4.68-4.2,5.66-1.23,1.06-2.02,1.55-3.74,1.28v-.85c3.82-.59,5.78-4.31,8.03-6.89,0,.27.06.53-.08.79Z"/>
    <path class="cls-2" d="M275.3,127.86c-.41.33-1.26,1.13-1.7,1.31-.48.19-.58-.38-.42-.56.06-.07,1.13-.55,1.49-.87,1.15-1,2.15-2.23,3.38-3.15-.35,1.42-1.67,2.41-2.74,3.27Z"/>
    <path class="cls-2" d="M324.77,149.24c.34.32-1.6,1.82-1.91,1.96-.29.13-.84.53-.96-.1-.13-.75,2.27-1.58,2.86-1.86Z"/>
    <path class="cls-2" d="M362.04,138.92c.12.66-.25,1.19-.86,1.43l.29-1.43h.57Z"/>
    <path class="cls-2" d="M225.3,143.79l-2.29,1.86c-1.69,2.23-1.53,5.05,1.59,5.57,1.42.24,1.36.1,2.65.55,2.59.9,6.27,1.3,9.16,2.25,1.43.47,2.59,1.26,4.07,1.52.36.72-.64.5-.57.71.29.52,1.03.75,1.34,1.1.17.19.15.65.37.91.88,1.05,2.42,1.64,2.02,3.58-.41.43-2.72-1.69-3.29-2.01-5.21-2.97-12.54-4.35-18.16-6.65-.36-1.09-1.75-2.51-2.18-3.68-.26-.7-.14-1.48-.4-2.18-.19-.53-.8-.28-.62-1.08.19-.84,3.1-1.67,3.79-1.91.23-.08.22-.49.42-.54.62-.14,1.43.07,2.09,0Z"/>
    <path class="cls-2" d="M216.12,157.83c-.75.93-2.29,1.18-3.25,1.76-2.15,1.32-3.76,3.46-4.21,5.97-.62-.22-.79-.67-.87-1.27-.68-4.86,4.43-6.4,8.33-6.46Z"/>
    <path class="cls-2" d="M258.55,111.12c-1.41-.35-1.53.99-3.02.58l-3.29-.86c.97.11,1.32-1.02,2.28-1.3,1.28-.37,4.17-.28,4.03,1.59Z"/>
    <path class="cls-2" d="M218.99,173.02c-.94.41-1.17-.52-1.35-.56-1.67-.39-2.43-.35-4.08-1.32-.61-.36-4.1-2.86-3.46-3.56l8.88,5.44Z"/>
    <path class="cls-2" d="M233.33,140.93c.19.65-.34.67-.86.73-1.52.17-3.01.25-3.73-1.3,1.62.42,2.94.49,4.59.57Z"/>
    <path class="cls-2" d="M226.15,135.77l2.3,4.01c-.52.11-.69-.27-1.01-.56-.72-.66-2.07-2.34-1.86-3.3l.57-.14Z"/>
    <path class="cls-2" d="M235.9,139.78l-1.17,1.23c-.68.78-1.29-.34-.63-.65l1.8-.58Z"/>
    <path class="cls-2" d="M336.52,88.77l-1.72,3.01,1.72,1.99c-.59.91-2.01.54-2.71,1.03-.41.29-.35.79-.56,1.01-.39.41-3.22,3.42-3.61,2.98-.02-1.14.28-2.9-.88-3.56-.52-.3-1.48-.15-1.7-1.02.19-.26,5.17-1.74,6.07-2.31.59-.37,1.16-1.38,1.66-1.86.18-.18,1.57-1.43,1.73-1.27Z"/>
  </g>
</svg>