<?xml version="1.0" encoding="UTF-8"?>
<svg id="Layer_2" data-name="Layer 2" xmlns="http://www.w3.org/2000/svg" viewBox="0 0 699.5 297">
  <defs>
    <style>
      .cls-1 {
        fill: #ff0013;
      }

      .cls-2 {
        fill: #fff;
      }
    </style>
  </defs>
  <g>
    <path class="cls-2" d="M459.73,117.85l-.78,2.31-9.52,28.16-.84,6.25-4.89-3.47,10.44-33.05.68-2.16c1.39,1.44,1.4,3.02.9,4.61-.52,1.7-1.61,3.41-2.18,4.96-.45,1.22-.54,2.66-1,3.87-1.81,4.83-7.15,15.12-6.09,19.87.19.83.99,1.78,1.82,1.09,1.02-.85-.05-1.5-.15-2.19-.85-5.86,3.75-13.86,5.98-18.99,1.32-3.04,1.84-5.72,2.42-8.46.33-1.54.68-3.11,1.2-4.77.19-.61.53-1.27.96-1.89l1.05,3.86Z"/>
    <path class="cls-2" d="M459.46,110.07c-.52-.26-2.59-1.05-2.88-1.09-.97-.13-3.42.44-4.38.81-3.4,1.33-5.82,4.97-8.27,7.48l.16.89c1.57-2.07,4.44-5.85,7.4-4.67.15.06,2.38,1.57,2.7,1.83.24.19.45.38.63.57,1.39,1.44,1.4,3.02.9,4.61l-1.58-2.45-1.57-2.42-2.89-1.16-7.83,5.32,3.16-4.03,2.71-2.98s4.56-5.05,9.41-3.72c.74.2,1.45.45,1.96.76.13.08.25.16.37.25Z"/>
    <path class="cls-2" d="M461.42,114.6l-2.05,5.47-.42.09-2.43.49c.33-1.54.68-3.11,1.2-4.77.19-.61.53-1.27.96-1.89.5-.76,1.13-1.47,1.75-1.98-.59-.28-.65-1.46-.81-1.81,2.23,1.73,1.8,4.4,1.8,4.4Z"/>
    <path class="cls-1" d="M464.73,134.79l-1.44.41c-2.1,3.78-4.15,8.05-6.89,11.39-.46.56-2.21,2.45-2.7,2.81-1.56,1.14-3.7.77-3.28-1.26.11-.57.61-1.97.83-2.62,3.19-9.63,9.07-18.31,10.35-28.33.25-1.95.66-2.62-.09-4.82-.45-1.31-1.13-1.54-1.93-2.23,0,0,.02.03.04.05h0c.16.36.22,1.54.81,1.82-.62.51-1.25,1.22-1.75,1.98-.43.62-.77,1.28-.96,1.89-.52,1.66-.87,3.23-1.2,4.77-.58,2.74-1.1,5.42-2.42,8.46-2.23,5.13-6.83,13.13-5.98,18.99.1.69,1.17,1.34.15,2.19-.83.69-1.63-.26-1.82-1.09-1.06-4.75,4.28-15.04,6.09-19.87.46-1.21.55-2.65,1-3.87.57-1.55,1.66-3.26,2.18-4.96.5-1.59.49-3.17-.9-4.61-.18-.19-.39-.38-.63-.57-.32-.26-2.55-1.77-2.7-1.83-2.96-1.18-5.83,2.6-7.4,4.67l-.16-.89c2.45-2.51,4.87-6.15,8.27-7.48.96-.37,3.41-.94,4.38-.81.29.04,2.36.83,2.88,1.09,0,0,0,.01.02.01.05.03.09.05.1.06-.03-.02.08-.41-.19-.58-2.95-1.93-7.83-.53-10.49,1.44-6.05,4.5-8.44,11.36-12.31,17.28-.35.53-.95,1.61-1.67,1.63-.05-.57.03-1.11.2-1.66,1.62-5.39,5.45-9.9,4.69-15.97-.39-3.14-4.4-3.94-7.05-3.58-2.31.31-4.27,2.51-6.31,3.38-1.04-.68-.51-1.99-.74-2.9-.08-.34-.44-.63-.68-.19l-.45,2.99c-.21.71-1.58.34-1.69.46-.06.05.04.85-.07,1.21-.14.41-.6.75-.68,1.06-.08.33.41.62.45,1.03.27,2.85-2.6,6.36-3.93,8.95-.28.54-.7,1.3-.91,1.73-.38.8-2.39,4.76-1.74,5.21.19.12.88,0,1.14-.14l4.69-8.35c1.7-3.05,4.31-4.65,6.48-6.84.22-.22.39-.44.73-.44,1.27.65,1.45,2.02,1.27,3.29-.24,1.65-1.21,4.39-1.72,6.02-2.33,7.38-5.34,14.25-7.64,21.59-.56,1.77-1.77,5.64-1.43,7.29,1.16,5.72,10.23,3.54,10.82-.77.49-3.57-.29-6.3.93-10.24,2.21-7.16,10.04-21.73,16.07-26.2,1.9-1.42,5.64-1.81,5.29,1.39-.19,1.71-1.06,5.52-3.09,3.09-.27.32,1.69,2.33.72,3.15l-2.73,1c.66.42,2.17.17,1.96,1.36-1.77,5.02-3.84,9.92-5.72,14.89-1.01,2.67-2.58,5.93-2.83,8.97-.39,4.82,2.17,7.34,7.02,6.74,6.27-.77,13.25-13.18,15.66-18.45.64-1.39,1.36-2.57,1.1-4.19ZM432.89,129.79c.08.62.86.26.57,1.09-.18.48-.98.74-1.36,1.23-2.49,3.14-3.47,7.19-4.91,10.85-.16.4-.5,1.39-.86,1.57.09-4.46,2.84-8.66,3.98-12.78,1.09-3.99,1.26-7.42,3.34-11.28.21-.38-.09-.74.7-.58l-.87,4.66c-.86.66-.74,4.08-.59,5.24ZM433.63,117.31c-.46-.99-2.47-3-3.45-3.13-1.71-.23-2.25.2-3.11,1.6l-3.04,1.81c-.73-.91,4.08-5.78,4.9-6.4,3.44-2.63,9.16-3.79,10.26,1.63-1.14.64-1.55,1.24-2.36,2.09-.36.38-.7.38-1.11,1.04-.5.8-.91,2.14-1.09,3.08-.91.2-.72-1.11-1-1.72ZM456.92,147.78c-.32.41-1.53,1.89-1.81,2.17-.29.28-1.88,1.41-2.13,1.17l.6-.98,3.7-3.32c.2.76-.15.68-.36.96Z"/>
    <path class="cls-1" d="M434.79,75.45c-3.55-.43-7.11.41-10.6.6-5.14.29-11.01-1.25-16.08-.6-.76.1-1.71.69-1.15,1.46.4.55,2.6.16,3.44.29.84.13,3.38,1.31,3.77,2.09,1.66,3.31-1.91,10.94-2.97,14.44-2.95,9.73-6.25,19.76-9.43,29.55-2.03,6.23-3.72,12.6-5.85,18.8-1.48,4.3-2.82,9.58-7.31,11.6l-6.53,1.14-.42.99.52.61,28.82-.12-.04-1.49c-2.19-.35-4.35-.29-6.41-1.27-1.11-.87-.99-2.96-.85-4.26.22-2.01,1.69-6.28,2.35-8.54,4.48-15.14,9.43-30.14,14.28-45.04,1.43-4.39,4.02-14.78,7.92-17.08,2.16-1.27,5.07-1.6,7.53-1.43.02-1.13.23-1.59-.99-1.74ZM415.19,98.01c-4.13,13.73-8.77,27.47-13.38,41.07-.42,1.23-.46,3.25-1.57,4.3.1-1.54.53-3.39.95-4.92,1.56-5.7,3.93-11.27,5.72-16.92,3.05-9.59,5.66-20.44,9.24-29.73.27-.7.69-1.85,1.28-2.3-.67,2.84-1.4,5.71-2.24,8.5ZM424.3,80.46c-.78.59-1.93.99-2.71,1.6-1.32,1.04-2.08,2.6-3.29,3.72.1-1.31-.02-2.35-.62-3.53-.3-.57-2.84-4.1-3.22-4.38-.57-.43-1.45-.91-2.18-.97-.09-.09.37-.57.43-.57h16.91c.1.02.44.39.43.57-2.51.1-4,2.26-5.75,3.56Z"/>
  </g>
  <g>
    <path class="cls-2" d="M600.51,111.04l2.12-1.69c-.13.14-.15.56-.37.77-1.42,1.32-3.72,2.02-5.6,2.43.07,2.27-1.89,3.51-2.94,5.37-1.01.41-1.82-2.61-2.41-3.13-.37-.33-.58-.22-.68.19-.08.32-.3,2.64-.32,3.59l-.08-5.61,2.04,1.83,1.29,2.19,3.2-4.81,3.75-1.13Z"/>
    <path class="cls-2" d="M605.13,109.48l-.99,1.28-7.23,12.03-6.6,18.63-3.74-1.91,2.94-11.05.8-9.53c.15.88,1.55,2.18,1.94,3.24.99,2.71-.62,7.19-1.99,9.63-.95,1.7-3.57,3.42-1.24,5.35.52.11,1.22-1.33,1.42-1.72,1.58-3.12,2.03-7.09,3.21-10.26,1.07-2.87,5.19-9.25,7.18-11.73.62-.78,3.66-3.38,3.8-3.96.25-1.04-1.49-.34-2-.13l.79-.58,1.01-.18.7.89Z"/>
    <path class="cls-2" d="M647.09,118.24l-9.58,26.93-.64,3.95c-.38-.11-.73-.03-1.12-.12-.09-.02-.17-.05-.26-.09-.05-.02-.1-.04-.14-.07-.19-.1-.39-.26-.61-.51-.22.78-.61,1.63.28,2.15,1.15.67.74-.81,1.72-.72v.19s0,.02,0,.03l-.9,5.55-4.83-6.01,9.71-32.49.38-1.27c.08.13.14.25.18.38.19.65.32,1.48.4,2.37.17,1.94.07,4.2-.33,5.61-1.78,6.25-5.65,13.29-7.16,19.49-.34,1.41-.65,2.93.42,4.14l2.24-8.64c2.87-5.37,4.16-12.92,6.95-17.98.2-.37.51-.58.8-.87.22-.22.43-.49.56-.92.11-.34.75-3.35.76-3.54.02-.51-.64-1.01-.56-1.97.04-.58.33-1.35.69-1.99h0l1.04,6.4Z"/>
    <path class="cls-2" d="M638.5,109.84c1.14-.3,4.2-1.07,4.64-1.07-1.69-.15-3.3.37-4.64,1.07ZM644.25,108.97c-.36-.1-.72-.17-1.08-.2.38.06.65.43.96.51.45.11.91.01,1.35.14-.37-.17-.77-.32-1.23-.45ZM645.58,109.46c.18.16,1.01,1.27,1.13,1.47-.23.23-.46.55-.67.91-.36.64-.65,1.41-.69,1.99-.08.96.58,1.46.56,1.97,0,.19-.65,3.2-.76,3.54-.13.43-.34.7-.56.92l1.89-.39.61-1.63,1.43-3.84s.47-3.29-2.94-4.94ZM641.27,116.14c-.04-.13-.1-.25-.18-.38-.78-1.29-3.51-2.54-4.78-2.42-1.22.11-2.17,1.45-3.29,1.74.78-.98,1.53-1.98,2.43-2.87.72-.72,1.94-1.38,2.59-2.11-1.93,1.1-3.21,2.48-3.21,2.48l-2.72,2.98-3.16,5.02,7.83-6.31,2.89,1.15,1.04,1.61.96,1.48c-.08-.89-.21-1.72-.4-2.37ZM631.59,117.09c-.16-.18,1.02-2.11,1.43-1.72.1.11-.99,1.7-1.43,1.72Z"/>
    <path class="cls-1" d="M650.32,135.53c-1.73,3.07-5.02,9.76-7.75,11.88-1.59,1.24-2.13,1.46-3.99.35.08-4.32,2.62-8.23,4.2-12.17,1.47-3.71,2.8-7.89,4.31-11.68.1-.26,1.12-1.2,1.13-1.28.03-.39-.31-.81-.24-1.32,0-.12.61-2.06.67-2.2.46-.99,1.85-.81,1.86-1.02l-1.32-.41c-.45-.62.15-4.21-.25-5.48-.1-.32-2.12-2.73-2.37-2.85-2.57-1.26-5.59-1.2-8.21-.01-.37.17-.11.49-.18.59.07-.02.18-.05.31-.09h.01c1.14-.3,4.2-1.07,4.64-1.07h.03c.38.06.65.43.96.51.45.11.91.01,1.35.14h.02s.04,0,.06.02h0s0,.01.02.02c.18.16,1.01,1.27,1.13,1.47-.23.23-.46.55-.67.91-.36.64-.65,1.41-.69,1.99-.08.96.58,1.46.56,1.97,0,.19-.65,3.2-.76,3.54-.13.43-.34.7-.56.92-.29.29-.6.5-.8.87-2.79,5.06-4.08,12.61-6.95,17.98l-2.24,8.64c-1.07-1.21-.76-2.73-.42-4.14,1.51-6.2,5.38-13.24,7.16-19.49.4-1.41.5-3.67.33-5.61-.08-.89-.21-1.72-.4-2.37-.04-.13-.1-.25-.18-.38-.78-1.29-3.51-2.54-4.78-2.42-1.22.11-2.17,1.45-3.29,1.74.78-.98,1.53-1.98,2.43-2.87.72-.72,1.94-1.38,2.59-2.11h0c.05-.07.09-.11.13-.17-1.95.55-3,1.4-4.46,2.85-.98.97-3.65,5.07-4.85,5.14-3.29.18-1.2-2.82-1.4-4.36-.06-.54-.98-2.6-1.35-3.13-.59-.85-1.09-.78-1.7-1.08.06.04.68,1.05.87,1.28-.43,1.48-2.78,5.62-1.27,6.74.51.38,1.56-.35,1.25,1.43-.65.38-1.75-.21-2.23.06-.09.05-.45.92-.68,1.21-1.42,1.77-2.99,5.98-2.54,8.35.14.71.79.59.87.91.46,1.82-.42,1.3-1.17,1.92-2.15,1.77-3.81,7.08-4.87,9.75-.17.45-.34.8-.27,1.31-.48.07-.31-.69-.29-1.01.14-3,2.13-6.03,2.95-8.8.69-2.31,1.35-5.18,1.91-7.31.47-1.79.83-3.71,1.17-5.52-2.1.03.31-1.59-.06-3.23-.72-3.15-3.79-2.67-6.25-2.22.43-2.18,2.68-2.79,3.73-4.29-2.77.93-4.67,3.57-6.3,5.94-6.15,8.91-9.21,20.31-14.87,29.5-.69,1.12-2.55,4.12-3.93,4.11-1.07-.18-.78-2.64-.67-3.56.22-1.88,1.33-4.28,1.85-6.17.57-2.13.99-4.32,1.7-6.61,1.06-3.35,3.18-9.37,4.76-12.38.21-.41,1.31-1.05,1.35-1.13.07-.14-.28-.6-.22-.93.41-2.31,2.43-5.21,3.4-7.29.43-.92,1.31-2.14.41-2.93-1.5-.19-1.55-.01-2.39.87.51-.21,2.25-.91,2,.13-.14.58-3.18,3.18-3.8,3.96-1.99,2.48-6.11,8.86-7.18,11.73-1.18,3.17-1.63,7.14-3.21,10.26-.2.39-.9,1.83-1.42,1.72-2.33-1.93.29-3.65,1.24-5.35,1.37-2.44,2.98-6.92,1.99-9.63-.39-1.06-1.79-2.36-1.94-3.24-.01-.03-.01-.05,0-.08v-.02h0v-.18s0-.05,0-.08c.02-.95.24-3.27.32-3.59.1-.41.31-.52.68-.19.59.52,1.4,3.54,2.41,3.13,1.05-1.86,3.01-3.1,2.94-5.37,1.88-.41,4.18-1.11,5.6-2.43.22-.21.24-.63.37-.77-.93.4-1.39.94-2.23,1.35-1.46.71-4.05.81-5.01,1.79-.64.65-.73,2.57-1.51,2.88-.61.13-.37-.26-.5-.63-.26-.81-.48-1.66-.5-2.52l-1.28.57c-3.7-6.12-9.06-4.98-14.29-1.38-9.13,6.28-13.5,17.13-17.21,26.93-2.62,6.95-6.96,10.67-14.44,11.93-1.7.28-5.03.57-6.25-.79-.69-.77-.45-1.11-.73-1.79-.15-.36-1.57-1.14.31-1.66-1.17-.99-1.29-1-.86-2.57h-1.72c.16-1.57-.67-2.88-.59-4.45.02-.59.56-3.34.75-3.85.06-.18.73-1,.94-1.15,8.22-2.71,24.33-8.52,22.68-19.62-.69-4.62-6.98-6.53-11-5.88-.58.1-1.31.65-1.89.84,1.9-.15,3.24-.84,5.29-.55,1.78.24,3.58,1.37,4.89,2.56.75.69-.07.58-.12,1.27-.09,1.34.76,2.87-.46,4.46l-.31.27-.92-.33c-1.22-10.79-9.08-7.81-13.93-1.35-4.39,5.84-5.92,10.77-8.41,17.39-1.33,3.53-1.68,7.92-.92,11.66.27,1.31,1,1.67,1.38,2.33.31.52.72,2.58,1.59,2.4l1.03-1.13c.89,2.32,3.91,2.76,6.16,2.7,2.71-.07,5.24-.95,7.89-1.27-.44.72-1.73,1.29-2.53,1.64-2.55,1.12-6.12,1.81-9.1,1.53-5.52-.53-7.83-7.79-7.88-12.5,0-1.57.84-4.17.89-6,.04-1.21-.44-2.12-.24-3.37.76-4.73,7.66-15.55,11.25-18.85.78-.72,2.52-1.62,3.02-2.28-6.46,2.67-11.82,9.61-14.95,15.86-.77,1.54-1.16,3.21-2.04,4.7-2.82.6-5.28,1.49-7.94,2.51-.83.32-2.11.58-2.94,1.01-.34.18-.62,1.09-1.51.85.3-1.39.62-3.35,1.02-4.66,3.17-10.28,7.87-21.04,10.4-31.49l7.69-22.55,19.58-.06c1.1-.21,1.3-1.62,1.3-2.57h-59.34l-.58,2.58h33.54c.28,1.77-2.7,2.08-3.37,2.65-.22.19-.17.73-.44.99-1.25,1.24-3.46,1.41-4.13,3.18-6.24,21.34-14.15,42.51-20.31,63.37-15.46,14.03-29.34,29.65-41.03,46.95-7.55,11.17-15.35,24.27-18.07,37.83-1.4,6.95-2.1,17.98,5.14,21.58.22.1.2.44.45.52,4.55,1.51,11.45-1.8,15.23-4.15,7.4-4.6,13.34-13.34,17.76-20.72.52-.87,6.11-11.61,6.63-11.21l.72,2.58c1.09-.89.52-2.28.85-3.45.57-.7,1.14.06,1.58.18,1.26.33-.36-1.71.02-2.16l1.99-.87-1.87-.85.44-1.73c-.84.34-1.19.61-1.31-.43,5.43-13.19,10.31-26.67,14.77-40.14,3.03-9.16,5.99-18.82,8.88-27.85.32-1.01.46-2.58.9-3.57.52-1.17,7.36-4.17,8.87-4.67,1.35-.45,2.87-.9,4.3-1,.19.19-1.01,3.33-1.12,3.9-.73,3.69-.79,10.88.77,14.07,5.06,10.39,17.39,5.61,24.29.09,2.7-2.17,5.06-5.1,7.59-7.46v5.88c0,.96,1.6,4.27,2.3,5.15.89,1.12,2.5,1.65,2.58,3.01l1.54-.55,1.32,1.7.57-1.6,1.72.17c.04-.33-.11-.84.05-1.1.1-.16,2.54-1.2,3.24-1.78,1.89-1.54,3.43-4.03,5.15-5.74l6.23-9.96,1.1-.05c.34.33-1.2,4.43-1.46,5.22-.08.22-.45.21-.52.44-.51,1.62-1.66,6.46-1.44,7.93.72,4.93,6.16,5.47,9.77,3.01,6.8-4.64,13.25-26.09,18.77-34.04.59-.84,1.65-1.62,1.95-2.07.33-.48.25-1.22.84-1.88.41-.47,2.02-1.45,2.62-1.42,1.34.39,1.76,1.47,1.26,2.72l-1.69.03,1.31.55c.34.48,0,1.39-.12,1.93-1.1,4.96-3.83,10.59-5.47,15.22-1.39,3.94-5.38,13.33-4.82,17.05.67,4.47,6.62,4.6,9.57,2.39,2.43-1.83,1.28-5.14,1.53-7.77.52-5.32,3.33-11.99,5.91-16.74.89-1.63,7.89-12.63,9.15-12.63h5.16c1.02.83.61,2.6.34,3.79-1.08,4.92-3.56,9.46-5.37,14.11-1.27,3.28-4.36,9.85-4.85,12.92-.75,4.73,1.81,7.92,6.69,7.54,6.89-.54,13.95-13.15,16.54-18.93.36-.78,1.04-1.32,1.07-2.67.05-1.71-1.38-.88-1.85-.04ZM537.82,128.96c.98-4.28,3.04-9.17,5.52-12.82,1.73-2.54,5.32-6.74,8.74-4.95,1.53.8,1.45,5.61,1.23,7.17-.42,2.88-3.13,7.23-5.38,9.04-1.67,1.35-8.46,5.54-10.39,4.18-.82-.98.09-1.81.28-2.62ZM534.99,147.28c.06-.25.18-2.14.84-1.53.57.52.35,2.84-.84,1.53ZM494.03,187.2c-1.74,6.57-4.44,13.23-6.45,19.78-.03.08-.39.11-.45.32-.44,1.41-.6,3.1-1.16,4.5l.59.32,2.26-.75c.01.79.07,1.73-.23,2.47-.08.21-1.09,1.39-1.34,1.25l-1.72-1.71-2.72,3.15c-.03-.95.1-2.03.36-2.94,1.14-4.08,4-8.02,5.37-12.1l5.73-16.48c.07.75-.05,1.47-.24,2.19ZM483.97,200.07c-4.55,13.57-11.84,39.4-23.59,47.76-5.54,3.95-13.12,6.01-15.84-2.08-4.44-13.18,8.95-37.27,16.08-48.25,11-16.94,22.96-30.79,37.24-44.86.22-.22,1.93-2.76,2.11-1.31.03.22-1.38,3.45-1.59,4.11-1.23,3.9-2.38,7.83-3.64,11.71-3.47,10.75-7.12,22.01-10.77,32.92ZM498,174.4c.07-2.11.93-4.5,1.69-6.48.16-.42-.27-.84.6-.68l-2.29,7.16ZM503.16,157.78c-.07-.5.03-.94.14-1.43.08-.33.38-1.67,1-1.43.01.91-.36,2.29-1.14,2.86ZM513.16,130.96c-1.42,5.14-4.61,10.24-5.77,15.72l-2.51,5.37c.31-.96-.37-2.79-.23-3.51.38-1.87,3.09-7.16,3.98-9.44,5.22-13.25,10.43-29.93,14.4-43.84.78-2.72,2.54-5.6,1.17-8.52-.3-.63-1.39-1.48-1.5-2.23-.03-.22.23-1.95.29-2.04.1-.15,2.75-1.52,3.19-1.82.72-.5,5.58-3.81,5.66-4.15.46-2.06-2.97-1.43-4.17-1.54l-4.16-.57c.94-.39,1.99.04,2.72,0,2.75-.15,5.84-.6,8.62-.3.43.05.71.03.98.45-.45.37-.85.57-1.21,1.07-2.48,3.33-4.94,8.45-7.21,12.13-.58.94-1.54,1.63-2.09,2.93-1.48,3.46-2.41,8.46-3.61,12.15-3.13,9.58-5.87,18.44-8.55,28.14ZM564.5,145.17c-.18.02-.57-.38-.57-.43,0-1.53-.15-3.39,0-4.87.56-5.6,4.13-14.18,7.05-19.03,3.16-5.26,6.75-10.85,13.18-12.05,1.62-.3,4.76,1.09,5.57,2.71l-2.51-1.21c-3.21-1.1-6.11,1.16-8.44,3.09-4.63,3.84-9.86,13.87-12.04,19.56-1.52,3.98-2.17,7.96-2.24,12.23ZM568.23,152.05c-.37.84.46,1.95.47,2.43.03,1.78-3.72,1.28-3.06-1.37,1.86-.89.99-1.33,1.2-2.29.11-.46,1.09-.92,1.14-1.6.44-.25,1.53.64,2.18.76,2.73.52,4.92-.68,6.81-2.51l.08.81c-2.57,2.21-5.24,4.02-8.82,3.77ZM577.41,146.18c-1.16,1.19-3.37,3.14-5.02,3.3-3.32.33-3.41-1.33-3.58-4.17-.53-8.58,5.12-26.53,12.34-31.78,1.55-1.12,5.05-2.92,6.78-1.51.8.65,1.11,2.64,1.23,3.64l-.87.14.85,2.83-2.56,1.04c.6.12,2.17.37,2.58.71,1,.83-.42,2.22-.53,2.94-.11.67.3,1.18.19,1.86-.74,4.91-7.89,17.4-11.41,21ZM588.01,147.18c-.83-.39-.44-2.78.28-3.15l-.28,3.15ZM595.39,149.13c-.06.1-.48.16-.62.35-.76,1.04-.59,1.72-2.46,1.13l3.01-2.28c.28.04.18.64.07.8ZM625.98,123.95c-.52,1.15-2.21,4.35-2.98,5.25-.22.26-.56.38-.87.5-.41-.53,1.88-6.11,2.54-6.69.44-.38.97-.15,1.47-.19.04.42,0,.75-.16,1.13ZM628.36,119.6c-.27.31-.82.43-1.07-.07.45-.53.67-1.13,1.42-1.29.02.42-.07,1.04-.35,1.36ZM633.02,115.37c.1.11-.99,1.7-1.43,1.72-.16-.18,1.02-2.11,1.43-1.72ZM634.16,117.95c-.23-1.19,3.54-2.49,3.97-2.25l.62,1.68-4.59.57ZM637.46,151.2c-.23-.02-.39-.09-.5-.21-.04-.04-.07-.08-.1-.12-.03-.05-.05-.1-.06-.15,0-.05-.03-.1-.04-.16,0-.04,0-.07,0-.11-.01-.09-.02-.19-.02-.29,0-.07,0-.14,0-.21v-.19c-.98-.09-.57,1.39-1.72.72-.89-.52-.5-1.37-.28-2.15.22.25.42.41.61.51.04.03.09.05.14.07.09.04.17.07.26.09.39.09.74,0,1.12.12.07.02.13.04.19.07.06.02.13.05.19.1.06.03.11.07.16.12.07.05.13.11.2.18.05.04.09.09.14.15.05.05.09.11.14.17.53.7.84,1.42-.43,1.29ZM639.04,151.48c.25-1.01,1.23-1.29,2.07-1.72l3.37-3.15c-1,2.15-2.88,4.68-5.44,4.87Z"/>
    <path class="cls-1" d="M624.37,109.33c-.37-.11-2.47-.56-2.65-.56-.84.1-3.25.84-4.18,1.16.04-.06-.1-.38.04-.52.11-.11,2.67-.89,2.95-.93,1.88-.27,2.39.13,3.84.85Z"/>
    <path class="cls-1" d="M545.87,109.93c.05-.07-.1-.45.02-.54.2-.15,1.04-.01,1.41-.04-.36.13-1.03.41-1.43.58Z"/>
    <path class="cls-1" d="M686.64,115.21c-.02-.16-1.51-2.54-1.75-2.84-2.04-2.58-5.45-3.57-8.57-3.91l-.02-.83-1.43.29c-.13-.12,0-2.44-.86-2.58l-.56,2.17-2.02-.16c1.37,2.5-3.48,1.61-3.98,2.04-.04.04-.14.73-.45,1.12-.72.92-1.93,1.37-2.64,2.09-1.74,1.77-2.6,3.73-3.27,6-.08.26-.51.11-.58.62-1.13,8.74,4.45,14.88,8.65,21.71,1.33,2.15,1.98,3.56,2.29,6.37.13,1.23-.42,3.64-.91,4.81-.3.74-2.24,1.96-3.06,2.15-2.93.68-5.74-.24-7.24-2.9-1.14-2.05-.72-4.14-1.51-6.24-.97-2.6-4.18-3.47-6.32-1.68-.46.39-1.4,2.95-1.34,3.57.09.87,1.11,3.66,1.61,4.44,3.44,5.46,11.49,7.09,17.22,4.66,9.21-3.89,10.63-13.7,6.37-21.88-2.74-5.25-12.3-15.3-6.72-21.16.2-.21,1.28-1.07,1.45-1.13.49-.19.58.38.43.56-.13.14-1.27.61-1.43,1.3l.7.14,2.56-1.99c1.22.69.61,2.14.75,3.28.05.4.17.85.57.43l.32-3.41c.54-.87,2.74,1.59,3.08,2.16.97,1.63.6,3.33,1.78,5.03,1.27,1.82,4.17,1.93,5.83.49,1.21-1.05,1.23-3.2,1.05-4.72ZM656.52,148.18l-.71.43c-1.61-1.35-4.06-4.93-.79-5.68.77-.18.47.21.88.5.15.11.62,0,.62.02v4.73ZM664.76,155.71c-1.55-.26-2.99-.5-3.94-1.94l4.3,1.44c0,.49.19.6-.36.5ZM682.6,116.23c-1.95-.33-2.37-2.4-3.42-3.59-4.2-4.76-11.45-2.66-13.12,3.24-1.33,4.73-.26,8.7,2.31,12.73.58.89,1.69,1.87,2.26,2.89.95,1.73,1.55,3.98,2.19,5.84l-.53.38c-2.5-4.54-6.04-8.57-7.72-13.63-1.6-4.79-1.21-11.23,3.81-13.76.87-.44,3.98-1.38,4.93-1.54,1.74-.27,6.23.63,7.74,1.56,2.05,1.25,2.01,3.68,1.55,5.88Z"/>
    <path class="cls-2" d="M638.13,115.7l.62,1.68-4.59.57c-.23-1.19,3.54-2.49,3.96-2.25Z"/>
    <path class="cls-2" d="M636.74,149.95c0,.07,0,.14,0,.21v-.18s0-.02,0-.03Z"/>
    <path class="cls-2" d="M535.83,145.75c.57.52.35,2.84-.84,1.53.05-.25.18-2.14.84-1.53Z"/>
  </g>
  <g>
    <path class="cls-2" d="M248.7,125.09l-3.17.2-3.71-12.96-2.54-1.64s-7.19.39-9.42,7.69c-2.22,7.3-4.43,16.24-4.43,16.24l-2.14.68-2.6-5.26,2.6-9.39,4.48-6.25,3.56-3.33,1.71-.81c-6.3,4.21-7.87,8.72-9.53,15.83-.24,1.05-1.45,2.46-1.52,3.21-.16,1.87,1.83,2.65,2.59,4.17.11-3.19-.02-6.65.86-9.74,1.07-3.75,7.02-12.2,11.06-13.31,5.5-1.51,8.11,3.19,9.54,7.62l1.04,4.82c.23-1.4.73-3.09.75-4.48.02-1.18-.8-3.87-.31-4.7.2-.34,1.16-.11.44-.71-.43-.36-.99-.42-1.31-.7-.72-.61-.86-1.2-1.9-1.82-3.24-1.93-8.15-.97-11.68-.2.34-.13,3.07-1.16,4.93-1.29,1.98-.14,5.99.4,5.99.4l4.43,3.36.28,12.37Z"/>
    <path class="cls-2" d="M211,114.47l-2.05,5.47-3.47.71-3.33-5.16-2.89-1.16-7.83,6.32,3.16-5.03,2.71-2.98s4.58-4.93,9.43-3.6c.74.2,1.43.34,1.94.64-2.82-.75-6.21-.6-8.59,1.02-.9.61-7.62,6.98-6.89,7.87,3.1-2.15,4.01-5.73,8.47-5.18.36.04,2.66,2.02,3,2.46l1.72,3.29c.6-2.49,1.88-4.36,2.89-6.65.16-.36,1.03-.24.34-1.6-.24-.47-.71-.51-.86-.72-.14-.19-.05-.45-.08-.49,2.82,1.71,2.33,4.79,2.33,4.79Z"/>
    <path class="cls-2" d="M194.08,44.31l-57.31,94.32-2.77-4.56,13.38-23.58,2.95-8.5,4.73-5.04,22.7-40.02-1.01-1.91-3.25-.56,5.49-6.89,7.27-.53,3.32-1.27,1.25-.65c-.75.44-1.48,1.07-2.46,1.43-3,1.1-5.8.84-8.87,1.45l-5.23,5.95.14.43c1.6-.5,3.99-4.24,5.44-5.17.35-.23.57-.36,1.01-.28.57,2.35-2.62,4.22-2.75,6.02-.09,1.17.93.9,1.04,1.35.3,1.19-1.07,4.52-1.67,5.72-3.6,7.17-8.8,15.59-13.01,22.53-2.27,3.76-5.94,10.3-8.67,13.4-1.41,1.6-3.41,2.7-4.89,4.26l.38,3.61c-2.75,7.03-7.58,13.2-10.89,20.01-1.08,2.23-2.27,4.88-2.53,7.35,1.99-1.81,2.79-5.09,4.04-7.5,2.58-5.01,5.79-9.84,8.49-14.79.69-1.28,1.17-3.29,1.82-4.42.72-1.27,2.77-3.07,3.7-4.45,9.29-13.73,16.08-30.26,25.52-43.98l11.75-13.27c-.2-1.31-1.27.1-1.36.14-.19.09-.49-.02-.61,0l.47-.24,1.25-.72,1.14.36Z"/>
    <path class="cls-1" d="M212.8,135.58c-.95,1.49-1.75,3.82-2.72,5.4-1.08,1.77-4.46,6.84-5.94,7.96-3,2.26-4.23,1.15-3.41-2.35,2.07-8.92,8.76-18.42,10.43-27.97.48-2.72.98-8-2.49-8.94.03.04-.06.3.08.49.15.21.62.25.86.72.69,1.36-.18,1.24-.34,1.6-1.01,2.29-2.29,4.16-2.89,6.65l-1.72-3.29c-.34-.44-2.64-2.42-3-2.46-4.46-.55-5.37,3.03-8.47,5.18-.73-.89,5.99-7.26,6.89-7.87,2.38-1.62,5.77-1.77,8.59-1.02-.65-.73-.6-.8-1.7-1.01-6.7-1.29-12.34,5.9-15.62,10.78-2.33,3.47-4.02,7.42-6.75,10.58-.08-.82.13-1.57.37-2.34,1-3.2,3.42-6.77,4.3-10.03.49-1.82.19-3.81,1.04-5.51-1.43-.79-1.43-2.37-3.1-2.8l.25-1.67c-1.24.22-2.07,1.41-3.38.51l-.64-2.8-1.61,3.12c-1.11.39-2.98-1.4-3.26-1.12,0,.91,1.27,1.82.6,2.69-.2.26-.65.13-.78.26-.36.35-.46.97-.97,1.2-.5.23-2.07.2-2.29.44-.49.55.72.64.84,1.02.35,1.06-.52,1.03-.74,1.37-5.47,8.52-10.29,17.49-16.16,25.76-3.44,4.86-9.11,12.82-15.12,14.18-1.33.3-3.42.57-4.73.3-.81-.17-2.76-1.68-3.01-2.44-1.08-3.24.3-6.57,1.84-9.5.47-.91,1.76-3.46,2.82-3.48.1,0,.23.95,1.01.58l.17-.89,1.55.03-.27-.96,1.12-.9-.81-.47,1.11-2.53c-.17-.15-2.47,1.6-1.26-.83,2.51-5.02,5.88-10.61,8.73-15.57,12.65-22,25.87-43.6,38.18-65.92.58-1.05,4.97-7.79,4.51-8.24-.78.12-1.97-.19-2.66,0-.42.11-.99,1.38-1.06,1.43.01,0,.02,0,.03,0,.12-.02.42.09.61,0,.09-.04,1.16-1.45,1.36-.14l-11.75,13.27c-9.44,13.72-16.23,30.25-25.52,43.98-.93,1.38-2.98,3.18-3.7,4.45-.65,1.13-1.13,3.14-1.82,4.42-2.7,4.95-5.91,9.78-8.49,14.79-1.25,2.41-2.05,5.69-4.04,7.5.26-2.47,1.45-5.12,2.53-7.35,3.31-6.81,8.14-12.98,10.89-20.01l-.38-3.61c1.48-1.56,3.48-2.66,4.89-4.26,2.73-3.1,6.4-9.64,8.67-13.4,4.21-6.94,9.41-15.36,13.01-22.53.6-1.2,1.97-4.53,1.67-5.72-.11-.45-1.13-.18-1.04-1.35.13-1.8,3.32-3.67,2.75-6.02-.44-.08-.66.05-1.01.28-1.45.93-3.84,4.67-5.44,5.17l-.14-.43,5.23-5.95c3.07-.61,5.87-.35,8.87-1.45.98-.36,1.71-.99,2.46-1.43-1.73.81-6,1.91-7.52,2.1-.62.08-2.69.06-3.14-.26l-.17-1.75h-.85c.12.81-.26,2.09-.85,2.66-.62.59-1.69.36-2.02,1.51l-2.58-.45c.15.96,1.19,1.88,1.02,2.87-.33,1.93-3.88,2.68-3.88,3.01l.88.6-.62,1.32c-13.87,14.93-27.38,30.23-41.09,45.24l-20.18,1.19-.91,1.22c.2.28.37.38.71.43,5,.87,11.55-1,16.36-.58.49.04,1.11-.06,1.27.58-1.82.97-2.71,2.91-4.03,4.36-1.6,1.75-3.61,3.35-5.21,5.1-22.01,24-50.06,60.17-84.06,64.2-5.56.66-12.55.12-17.79-1.72-1.08-.38-2-1.45-3.27-1.14-.39,2.02.06,2.89,1.94,3.61,6.78,2.62,17.19,2.56,24.21,1.18,35.12-6.91,65.31-49.32,89.63-73.73.76-.76,2.55-2.72,3.6-2.72h15.62l-6,9.69c-5.74,10.79-11.53,20.42-10.64,33.45.55,8.05,7.79,11.47,14.98,8.36,11.37-4.91,20.26-25.59,28.22-35.4.86-1.06,4.78-5.95,5.49-2.42.02.14-.19,2.53-.24,2.75-1.71,7.59-6.66,17.83-9.15,25.86-1.62,5.26-3.02,12.62,5.22,10.95.33-.07,2.93-1.43,3.17-1.64.08-.07,1.03-1.75,1.05-1.88.28-1.42-.16-3.57.02-5.14.95-8.38,7.42-21.22,12.9-27.73,1.57-1.86,6.45-6.42,8.97-4.83.76.88.38,2.98.11,4.09-1.62,6.6-6.16,15.08-8.49,21.38-1.24,3.34-3.97,9.84-2.32,13.09,2.13,4.23,7.36,3.02,10.67,1,4.04-2.48,9.75-13.03,11.71-17.25.23-.5,1.03-1.07,1.11-2.11.13-1.54-1.14-1.74-1.88-.59ZM18.77,178.74c-1.26-.16-3.49-.91-4.46-1.71l4.53.91c.09.46.72.9-.07.8ZM131.84,102.65c-.11.11-2.38,1.64-2.57,1.74-.39.2-.44.19-.73-.14l-.12-1.14c.36-.04.71-.08,1.04-.25,2.06-1.07,6.46-6.77,8.4-8.8.24-.26,1.42-1.58,1.72-1.28l-6.3,7.3c-.6.61-.93,2.06-1.44,2.57ZM133.84,101.81l.12-.91c3.36-3.63,6.86-7.21,10.16-10.89,6.07-6.77,11.84-13.66,17.97-20.45,3.43-3.8,7.84-9.3,11.45-12.61.98-.89,1.6-1.67,2.74-.85-1.51,3.94-4.53,7.02-6.05,10.94l-20.6,34.49c-5.23.58-10.53.53-15.79.28ZM183.12,130.4c-.14.51-2.55,2.62-3.07,3.55-1.07,1.92-1.54,4.44-2.5,6.39-.2.41.07.72-.7.58l1.67-5.63c1.75-2.36,1.52-5.72,2.3-8.6.6-2.21,2.75-5.96,2.64-7.97-.15-2.72-2.06-2.5-3.65-4.12-.73.15-1.73.15-2.39.38-.65.22-1.32,1.23-2,.87,2.23-4.23,5.23-7.3,10.45-6.44.62.1,1.28.57,1.77.96,3.22,2.63-1.15,4.07-2.12,5.83-.68,1.23-3.24,9.79-3.2,11.06.03.99.97,2.53.8,3.14ZM196.63,146.37c-.76-.74,2.09-8.27,2.57-9.62,1.39-3.86,3.3-9.29,5.32-12.75.22-.37-.05-.72.71-.56-1.71,7.92-6.58,14.85-7.74,22.93h-.86ZM200.93,151.52c.07-.98,1.67-1,2.64-1.51,1.77-.94,2.92-2.37,4.1-3.93l.06.79c-2.18,1.83-3.27,5.5-6.8,4.65Z"/>
    <path class="cls-1" d="M358.46,120.01c-.89.99-.63.35-1.32,1.77-.1.22-.49.22-.54.43-1.01,4.42,3.19,6.21,6.55,3.91.95-.65,3.2-3.96,3.54-5.05.12-.39.79-3.6.79-3.79,0-.18-.8-3.21-.89-3.4-.42-.82-2.82-3.54-3.7-4.03-8.96-4.94-19.49,5.68-23.78,12.65-4.55,7.38-8.7,18.13-13.77,24.8-.61.81-3.67,3.66-4.62,2.34l-.27-1.41c2.02-10.03,7.04-19.82,9.67-29.61.57-2.13,1.1-4.3.98-6.52-1.02-1.96-2.56-3.67-5.08-3.83-6.3-.4-11.29,8.53-13.81,13.36-3.48,6.68-8.71,23.5-14.41,27.43-2.36,1.62-3.54,1.2-3.42-1.69.21-4.76,3.3-11.18,4.78-15.86,3.18-10.02,6.23-20.39,9.75-30.09,1.53-4.21,3.81-8.74,5.16-12.74.18-.54.05-1.11.21-1.66.27-.87,1.41-2.02.34-2.87-1.06-.85-2.09.28-2.94.51-2.18.58-4.45,1.33-6.75,1.9-1.83.45-4.15.84-6.11,1.05-1.02.12-3.75-.34-4.3.58-.26.54-.3,1.47.34,1.68,3.1.68,8.19-2.39,7.8,2.73-.2,2.7-2.08,7.58-2.91,10.27-1.54,4.96-3.37,9.85-4.98,14.79-1.95,5.99-4.04,16.19-7.57,21.03-2.73,3.75-8.61,8.56-12.89,10.39-4.29,1.83-11.99,2.81-12.57-3.47-.18-1.97-.3-7.41.27-9.12.26-.81.89-1.64,1.6-2.12,6.81-2.71,15.69-5.12,20.29-11.24,3.33-4.42,3.94-10.99-1.87-13.56-10.92-4.85-22.45,10.06-26.17,18.78-3.12,7.33-6.18,21.23,1.11,26.9,8.47,6.58,20.06-2.71,25.96-8.74,1.27-1.29,2.4-2.79,3.57-4.16.36-.02.69.19.6.59-.18.73-1.03,2.14-1.3,3.01-1.01,3.29-2.21,8.58,1.51,10.5,4.22,2.19,9.61-.88,12.23-4.29,6.06-7.88,8.49-16.52,12.48-25.28,1.14-2.5,4.51-9.82,7.03-10.73,2.6-.95,2.38,1.59,1.98,3.4-1.66,7.54-5.82,16.85-8.21,24.19-1.11,3.42-4.19,9.99.01,12.55,5.32,3.26,10.46-1.95,13.26-6.03l3.24-5.27,4.04-8.37c.48-.07.31.7.3,1.01-.21,5.66-1.24,13.91,4.11,17.79,11.39,8.29,23-9.15,26.46-18.17.24-.62.98-2.68.39-3.08l-1.11-.07-3.21,6.32c-2.6,3.62-6.47,10.03-11.62,10.25-1.66.07-3.45-.43-4.43-1.87-.51-.75-.36-1.05-.6-1.64-.09-.24-.49-.22-.54-.42-1.72-7.75,1.32-19.87,4.89-26.8,1.4-2.71,5.35-8.1,8.5-8.76,2.03-.42,4.37.18,4.89,2.43.4,1.74-.14,1.42-.71,2.2-.13.18-.05.56-.15.67-.35.38-1.93.53-2.52.66.14.49,1.07.26,1.65.5.21.08.75.46.64.64-.66.17-1.32,1.15-1.85,1.73ZM275.3,127.86c-.42.33-1.26,1.13-1.7,1.31-.49.19-.58-.39-.43-.57.06-.06,1.13-.55,1.49-.87,1.15-1,2.15-2.23,3.38-3.14-.35,1.41-1.67,2.4-2.74,3.27ZM277.36,123.62c-1.75,2.99-7.17,6.99-10.49,8-4.44,1.34-3.45-1.56-2.45-4.47,1.13-3.3,3.41-8.62,5.59-11.3,1.22-1.49,3.44-3.99,5.45-3.01-.16-2.72,2.9-1.95,3.66-.07,1.13,2.81-.25,8.29-1.76,10.85ZM257.99,132.19c1.09-7.31,8.88-21.31,16.89-22.66,2.05-.35,7.22-.45,8.11,1.95.15.41-.08.79,0,1.14.11.51.45.85.51,1.5.23,2.23-.79,3.75-1.73,5.59-.48.08-.32-.7-.3-1.01.17-2.46.46-4.28-1.14-6.5-4.37-6.05-11.73,2.85-14.33,6.52-2.14,3.03-3.39,5.2-4.32,8.8-.06.24-.49.21-.54.42-.6,2.51.6,4.81-2.23,7.18l-1.22,3.51c.07-2.02.01-4.47.3-6.44ZM280.11,147.5c-4.28,3.33-12.66,7.19-17.98,4.6-2.34-1.13-3.19-2.73-4.15-5.02-.05-.13-.07-.47.14-.43,1.17,1.14,1.83,3.39,3.57,3.88.87.25,5.74.75,6.74.71,3.77-.17,7.42-2.42,10.41-4.29,1.17-.74,2.41-1.89,3.79-2.02-.68.86-1.67,1.9-2.52,2.57ZM290.8,147.51c-.5-.33-.4-.77-.44-1.27-.53-6.35,4.25-16.36,6.33-22.65,2.08-6.3,3.89-12.7,5.92-19.01,1.1-3.44,4.08-8.62,2.8-12.36-.06-.19-1.97-3.14-2.12-3.26-.5-.4-1.51-.13-1.74-1.05l12.9-3.16c.17.46-.12.62-.22.83-1.74,3.63-4.16,4.49-6.07,7.42-1.85,2.82-2.88,5.99-3.94,9.18-3.79,11.38-7.17,23.35-10.65,34.63-1.15,3.74-2.18,5.61-2.34,9.7-.02.44.27,1.14-.43,1ZM303.19,144.58c-.69,1.25-3.06,4.68-4.2,5.66-1.23,1.06-2.02,1.55-3.75,1.28v-.85c3.82-.58,5.78-4.3,8.03-6.88,0,.27.06.53-.08.79ZM316.75,148.37c-.64-2.17-.19-3.99.36-6.08,1.75-6.66,4.86-13.19,6.71-19.66.79-2.78,1.59-4.46-.49-6.78-.91-1.01-2.16-1.86-3.59-1.82-.7.02-1.25.69-1.85.38,2.09-3.93,6.32-6.74,10.79-4.61.04.02.66.62.67.67.41,1.95-1.77,4.28-2.63,5.89-1.29,2.42-1.5,4.87-2.32,7.43-2.41,7.54-5.39,15.1-6.98,23.1-.08.37-.21,1.43-.67,1.48ZM322.86,151.19c-.29.13-.84.53-.96-.1-.13-.75,2.27-1.58,2.87-1.86.33.32-1.6,1.83-1.91,1.96ZM361.47,138.92h.56c.12.65-.25,1.19-.85,1.43l.29-1.43ZM352.77,112.03c-8.29,6.2-16.35,23.27-13.51,33.46.49,1.77,1.82,4.67,3.78,5.11,4.02.89,7.3,1.16,10.75-1.37.55-.4,1.88-2.08,2.37-2.29.34-.15.57.08.43.42-.18.41-2.8,2.93-3.3,3.3-3.97,2.91-9.13,2.84-12.65-.67-2.49-2.49-3.21-7.53-2.98-10.94.61-9.17,2.52-15.41,8.05-22.84,2.29-3.07,6.06-6.33,10.02-6.52.56.48-2.6,2.07-2.96,2.34ZM361.41,118.66c.22-.64.89-3.04.93-3.67.1-1.67-.35-3.55-1.87-4.46-.63-.38-1.47.03-1.3-.84.72.06,1.51-.16,2.21.09.08.03,1.28.92,1.39,1.03,1.45,1.37,2.72,4.47,2.4,6.45-.39,2.47-3.66,6.01-6.29,5.89-.2-.19.78-2.76,1.03-3.13.42-.63,1.34-.91,1.5-1.36Z"/>
    <path class="cls-1" d="M253.96,108.97c-1.89.42-4.44,3.1-6.1,2.72-.23-.05-.23-.46-.42-.56-1.56-.87-3.4-1.85-4.52-3.18-1.13,1.01-1.8.29-2.83.32-1.79.06-5.53.99-7.02,1.98,3.53-.77,8.44-1.73,11.68.2,1.04.62,1.18,1.21,1.9,1.82.32.28.88.34,1.31.7.72.6-.24.37-.44.71-.49.83.33,3.52.31,4.7-.02,1.39-.52,3.08-.75,4.48l-1.04-4.82c-1.43-4.43-4.04-9.13-9.54-7.62-4.04,1.11-9.99,9.56-11.06,13.31-.88,3.09-.75,6.55-.86,9.74-.76-1.52-2.75-2.3-2.59-4.17.07-.75,1.28-2.16,1.52-3.21,1.66-7.11,3.23-11.62,9.53-15.83-.34.07-.84-.11-1.22.01-7.53,4.1-13.53,13.11-12.23,22.17.37,2.57,3.43,7.35,5.83,8.5.92.44,2.39.36,3.03,1.41-.65.08-1.23.47-1.89.55-2.64.32-3.9.33-6.48,1.54-4.49,2.11-6.99,6.53-2.58,10.22.32.26,2.49,1.35,2.06,1.73-.83-.13-1.43.4-2.17.55-1.19.25-2.95.09-3.94.32-.21.05-.17.51-.39.56-.48.11-1.09-.09-1.6.07-5.21,1.65-9.84,6.23-5.78,11.67,2.56,3.42,8.09,4.98,12.05,5.72,7.86,1.47,24.29.66,29.36-6.42,1.8-2.5,2.14-7.21.27-9.73-3.35-4.55-14.05-6.28-19.26-8.55-1.16-.51-4.43-1.93-4.19-3.45.02-.09.82-1.49.89-1.56,1.73-1.76,9.17-2.63,11.96-3.65,8.22-3.02,14.42-12.48,14.36-21.2-.02-2.56-.91-5.05-2.03-7.3,2.57-1.9,3.19.08,5.29.86,2.72,1.03,5.09.27,5.82-2.69-.91-2.85-3.59-3.23-6.24-2.62ZM207.8,164.29c-.68-4.86,4.42-6.4,8.32-6.46-.75.93-2.29,1.18-3.24,1.77-2.16,1.32-3.76,3.45-4.21,5.96-.62-.21-.79-.66-.87-1.27ZM217.64,172.45c-1.67-.39-2.43-.34-4.08-1.31-.61-.37-4.09-2.86-3.45-3.57l8.88,5.44c-.94.42-1.17-.51-1.35-.56ZM240.96,168.9c-.09.17-2.2,2.26-2.41,2.38-5.78,3.24-20.95,2.43-25.76-2.67-2.26-2.39-2.11-5.48.32-7.64,6.71-5.96,15.59-1.96,22.66,1.15,2.68,1.18,7.23,2.94,5.19,6.78ZM223.01,145.65c-1.69,2.23-1.53,5.05,1.59,5.57,1.42.24,1.36.1,2.65.55,2.59.91,6.27,1.31,9.17,2.25,1.43.47,2.59,1.26,4.07,1.52.36.72-.64.5-.57.71.28.52,1.03.75,1.34,1.1.17.19.15.65.36.91.88,1.04,2.42,1.64,2.02,3.58-.41.43-2.72-1.7-3.28-2.02-5.21-2.97-12.54-4.34-18.17-6.64-.35-1.09-1.74-2.51-2.18-3.68-.26-.7-.14-1.48-.4-2.17-.19-.53-.8-.28-.62-1.08.19-.84,3.1-1.67,3.79-1.91.24-.09.22-.5.43-.54.61-.15,1.43.06,2.09,0l-2.29,1.86ZM227.44,139.21c-.71-.66-2.07-2.34-1.86-3.3l.57-.15,2.3,4.01c-.51.11-.69-.27-1.01-.56ZM232.47,141.65c-1.52.17-3.01.25-3.73-1.3,1.62.42,2.93.49,4.59.57.18.66-.34.67-.86.73ZM234.73,141c-.67.78-1.29-.34-.62-.64l1.79-.58-1.17,1.22ZM232.77,140.22c-3.74.69-4.9-1.99-5.17-5.18-.58-6.73,2.03-19.05,8.12-22.96,1.85-1.19,5.32-1.87,4.49,1.33l1.66.06c.26,1.47.8,2.87.93,4.37.52,6.48-2.33,20.94-10.03,22.38ZM255.53,111.7l-3.28-.87c.96.11,1.32-1.02,2.28-1.3,1.27-.37,4.16-.28,4.02,1.59-1.41-.36-1.53.99-3.02.58Z"/>
    <path class="cls-1" d="M343.83,94.21c-.5,0-4.17-.7-4.85-.88-2.06-.54-2.93-1.28-2.14-3.48.6-1.7,2.77-4.23,3.67-5.91.21-.4.8-1.35.45-1.77-1.26.25-1.83,2.08-2.63,3.08-.85,1.06-3.93,4.61-4.97,5.08-.33.15-.92.37-1.17-.01l-.97-6.71c-.98,1.41-.31,6.17-1.42,7.2l-3.02-.9.57,2.87c-1.1,0-2.01.56-3.08.78-1,.21-6.23.62-6.53.93-.57.6.49.79.89.84,1.98.23,4.38-.25,6.27.04.3.05,2.8.97,2.9,1.12.61.98-2.55,2.93-.72,3.62l-3.46,6.42,1.29-.29c.25-.81,4.88-6.62,5.3-6.3.56.9.39,8.31,1.01,8.31l.98-9.9,3.17.16-.15-2.01c3.27-1.99,7.22-.74,10.88-1.45l2.46-.84h-4.73ZM336.52,93.77c-.59.91-2,.54-2.7,1.03-.42.29-.36.79-.56,1.01-.39.41-3.23,3.42-3.62,2.98-.01-1.13.28-2.9-.87-3.56-.53-.3-1.48-.15-1.71-1.02.2-.26,5.17-1.74,6.08-2.31.58-.37,1.16-1.38,1.65-1.86.18-.18,1.58-1.43,1.73-1.27l-1.72,3.01,1.72,1.99Z"/>
    <path class="cls-2" d="M362.04,138.92c.12.66-.25,1.19-.86,1.43l.29-1.43h.57Z"/>
    <path class="cls-2" d="M336.52,88.77l-1.72,3.01,1.72,1.99c-.59.91-2.01.54-2.71,1.03-.41.29-.35.79-.56,1.01-.39.41-3.22,3.42-3.61,2.98-.02-1.14.28-2.9-.88-3.56-.52-.3-1.48-.15-1.7-1.02.19-.26,5.17-1.74,6.07-2.31.59-.37,1.16-1.38,1.66-1.86.18-.18,1.57-1.43,1.73-1.27Z"/>
  </g>
</svg>