<?xml version="1.0" encoding="UTF-8"?>
<svg id="Layer_1" data-name="Layer 1" xmlns="http://www.w3.org/2000/svg" viewBox="0 0 699.5 297">
  <defs>
    <style>
      .cls-1 {
        fill: #ff0013;
      }
    </style>
  </defs>
  <path class="cls-1" d="M333.09,137.12c-5.39,10.39-10.01,21.17-16.93,20.78-4.62,0-6.16-2.69-5.77-5.39,0-1.92.77-4.23,2.31-8.85l6.93-20.01c1.92-4.62,1.92-6.93,0-6.93-2.69,0-5.39,3.85-9.62,14.24-3.85,9.62-10.39,26.94-20.01,26.94-4.62,0-5.77-2.69-5.77-5.39,0-1.92.77-4.62,2.31-8.85l.77-1.92c-5.77,7.7-16.16,16.55-24.24,16.55-6.54,0-11.16-5-11.16-13.47,0-14.62,12.7-35.02,25.01-35.02,5,0,8.85,2.69,8.85,7.31,0,6.54-7.31,13.47-20.78,16.93-1.54.38-3.85,2.31-4.23,4.23l-.38,6.16c0,5.39,3.08,7.7,6.54,7.7,5.39,0,17.7-5.77,22.32-16.55l12.31-38.87c1.54-4.23,1.92-6.54-1.92-6.54-1.54,0-3.46.38-4.23.38-1.15,0-1.54-.38-1.54-.77,0-.77.38-1.15,1.54-1.15,3.08,0,9.62-.38,12.7-1.92,2.31-.77,4.23-1.54,5-1.54,1.15,0,1.54.38.77,1.92-2.69,7.7-6.93,17.32-8.85,24.24l-10.39,32.33c-1.54,4.62-1.54,7.31.38,7.7,5.77,0,11.54-16.55,13.47-21.17,3.85-8.47,8.85-20.4,16.16-20.4,4.23,0,5.77,2.69,5.77,5.39-.38,1.92-1.15,4.62-2.69,8.85l-6.93,20.01c-1.54,4.62-1.54,7.31.38,7.31,2.31,0,5.39-4.23,10.39-14.62,1.92-3.85,5.77-10.01,10.01-15.01l-3.08,5.77c-2.69,4.62-4.23,7.31-5.39,9.62ZM333.09,144.05c0-15.39,12.31-34.25,24.63-34.25,4.62,0,8.85,3.08,8.85,8.47,0,4.23-3.46,9.62-6.93,9.62-1.92,0-3.46-1.54-3.46-3.46,0-3.46,5.39-4.23,5.39-8.47,0-1.54-1.15-4.23-3.85-4.23-8.47,0-15.78,18.86-15.78,30.79,0,5.77,1.54,9.62,5.39,9.62,5.39,0,10.01-4.62,15.78-16.16.38-1.54,1.92-.77,1.15.38-6.16,15.01-13.08,21.94-20.4,21.94-6.93,0-10.78-5.39-10.78-14.24ZM330.79,90.56c3.46,0,5.39,2.31,5.39,5.39,0,3.46-1.92,5.39-5.39,5.39s-5.39-1.92-5.39-5.39c0-3.08,1.92-5.39,5.39-5.39ZM265.36,133.28c9.62-3.46,13.85-9.62,13.85-16.55,0-2.69-.77-4.62-3.08-4.62-5.39,0-10.39,9.24-13.47,18.47,0,1.92.77,3.08,2.69,2.69ZM203.41,166.37c0,5.39,7.7,10.39,21.55,10.39,12.7,0,23.09-4.23,23.09-11.93,0-4.23-2.31-6.93-9.62-9.24l-8.47-2.69c-5.39-1.92-6.93-3.08-6.93-5s3.85-3.46,8.85-4.23c10.01-.77,18.09-11.16,18.09-21.55,0-2.69-.38-5.39-1.15-6.93-.77-1.15,0-1.92,1.15-1.92,1.92,0,3.85,2.31,5.77,2.31,2.31,0,3.46-1.54,3.46-3.08s-1.54-2.69-3.46-2.69c-2.69,0-5.39,1.54-7.7,3.46h-1.15c-2.31-2.31-5-3.46-8.47-3.46-10.39,0-19.24,10.78-19.24,21.17,0,6.54,3.85,11.16,8.85,11.93.38,0,.77.38,0,.77-5.77.77-13.47,2.69-13.47,7.7,0,1.92,1.54,3.46,4.23,5.39,1.15.38,1.15.77,0,1.15-8.85.77-15.39,3.46-15.39,8.47ZM226.88,174.45c-8.85,0-16.93-3.85-16.93-8.85,0-3.46,4.23-5.39,8.85-6.93,2.31-.38,4.23,0,5.39,0l10.78,4.23c4.23,1.54,6.16,2.69,6.16,5,0,3.46-4.23,6.54-14.24,6.54ZM231.12,141.74c-3.46,0-4.62-3.08-4.62-8.85,0-8.85,5-21.17,11.93-21.17,3.08,0,4.23,3.08,4.23,8.47,0,9.24-5,21.55-11.54,21.55ZM213.41,135.97c-.77,0-1.15.38-1.54,1.54-5.39,10.39-8.47,14.24-11.16,14.24-1.92-.38-1.92-2.31.38-7.31,5-13.47,9.62-22.7,9.62-28.09,0-3.85-1.92-6.54-6.54-6.54-5.77,0-11.54,6.93-19.24,20.4-.38.77-.77,1.15-1.15,1.15-.77,0-1.15-.38-.38-1.54l2.69-6.16c1.54-4.23,2.69-6.54,2.69-8.47,0-2.69-.77-5.39-5.77-5.39-7.31,0-12.7,13.08-17.7,20.78-10.39,15.78-15.78,25.01-25.4,25.4-3.08,0-5-1.54-5.39-5,0-5,3.08-9.24,13.47-26.94l46.18-79.66h-2.31c-1.54,2.31-5.39,3.46-10.39,3.85h-2.69l-50.03,55.41-19.24.38-1.54,1.54,19.24-.77-12.7,13.85c-30.02,33.1-53.88,60.42-86.97,61.57-5,0-11.16-1.15-15.78-3.46l.38,2.69c4.62,1.92,10.39,2.69,15.78,2.69,32.33,0,57.34-28.86,88.13-62.34l13.85-15.01,17.7-.77-3.08,5.39c-11.93,18.86-14.62,28.86-14.24,36.56,0,4.62,2.31,11.54,9.62,11.54,9.62-.38,15.01-8.47,24.63-23.47,8.08-12.7,11.54-17.32,13.47-17.32s1.92,2.31,0,6.93l-8.85,25.78c-1.92,6.54,0,8.85,3.46,8.85,3.08,0,5.77-1.54,6.16-3.85.38-1.92-.77-5,1.54-11.54,6.16-17.7,15.78-26.55,19.63-26.55,1.15,0,1.92.38,1.92,2.31,0,3.46-5,13.85-9.24,25.4-1.54,4.23-2.69,6.54-2.69,8.47-.38,2.69,1.15,5.39,5.39,5.77,7.7.38,13.85-11.93,18.09-20.78.77-.77.77-1.54,0-1.54ZM148.76,102.88l-17.32.38,47.72-53.11h1.15l-31.56,52.72Z"/>
  <path class="cls-1" d="M427.1,116.93c-2.31-.38-6.16,4.23-11.16,14.24-.77,1.15-.77,1.54-1.15,1.54-.77,0-1.15-.38-.38-1.54,4.23-8.85,10.78-21.17,18.09-21.17,4.23,0,5.39,2.69,5.39,5.39,0,2.31-1.15,4.23-2.69,8.47l-2.69,6.16c0,1.15,0,1.92.38,1.92s1.15-.38,1.54-1.15c6.93-13.85,12.7-20.78,19.24-20.78,4.23,0,6.16,2.69,6.16,6.54,0,5.39-4.23,14.62-10.01,28.09-1.54,4.62-1.54,6.93,0,7.31,2.31,0,5.77-4.23,11.16-14.24.77-1.15,1.15-1.54,1.54-1.54s.77.77,0,1.54c-3.85,8.85-10.78,21.17-17.7,20.78-5-.38-5.77-2.69-5.39-5.39,0-2.31.38-4.62,2.31-8.85,4.62-11.54,9.24-21.94,9.24-25.4,0-1.92-.77-2.31-1.92-2.31-3.85,0-13.08,8.85-19.63,26.55-1.92,6.54-1.15,9.62-1.54,11.54-.38,2.31-3.08,3.85-5.77,3.85-3.46,0-5.77-2.31-3.46-9.24l8.85-25.4c1.54-4.62,1.54-6.93-.38-6.93ZM405.94,78.07q-.77,0-.77-.38,0-.77.77-.77l11.54.38h3.46l11.93-.38c.38,0,.77,0,.77.77,0,.38-.38.38-.77.38-5.39,0-9.24,1.54-11.54,8.85l-19.24,60.8c-2.31,6.93.38,8.47,6.16,8.47.38,0,.77.38.77.77,0,0-.38.38-1.15.38l-11.93-.38h-3.46l-11.54.38c-.77,0-1.15,0-1.15-.38s.38-.77,1.15-.77c5.77,0,9.62-2.31,11.54-8.47l19.63-60.8c2.31-6.93-.38-8.85-6.16-8.85Z"/>
  <path class="cls-1" d="M529.18,133.96c-1.15,3.46-1.92,8.08-1.92,10.78.38,8.47,4.23,13.47,11.16,13.47,8.47,0,17.32-7.31,22.32-14.24-.38.77-.38,1.54-.38,2.31,0,6.93,2.31,11.54,7.7,11.54,6.93,0,13.85-11.54,16.55-17.32.38-1.15.77-1.15,1.54-1.15s.77.38.77,1.54l-1.54,3.08c-1.54,3.85-2.31,6.54-2.31,8.47,0,2.69,1.15,5,5.77,5.39,6.93,0,11.54-13.08,15.39-21.55,6.93-15.39,10.78-20.01,13.08-19.63,1.92,0,1.92,2.31.38,6.93l-9.24,25.4c-2.31,6.93,0,9.24,3.85,9.24,2.69,0,5.77-1.54,6.16-3.85,0-1.54-.77-5,1.15-11.54,6.54-17.7,15.78-26.55,19.63-26.55,1.54,0,1.54.38,1.54,2.69,0,3.08-4.23,13.47-8.85,25.01-1.54,4.23-2.69,6.54-2.69,8.85,0,2.69,1.15,5,5.39,5.39,7.31.38,13.85-11.93,18.47-20.78,0-.77,0-1.54-.38-1.54s-1.15.38-1.15,1.54c-5.77,10.01-9.24,14.24-11.54,14.24-1.92-.38-1.54-2.69.38-7.31,5.39-13.47,9.62-22.7,9.62-28.09,0-3.85-1.92-6.54-6.54-6.54-6.16,0-11.54,6.93-18.86,20.78-.77.77-1.15,1.15-1.54,1.15s-.77-.77-.38-1.92l2.69-6.16c1.54-4.23,2.69-6.16,2.69-8.47,0-2.69-1.15-5.39-5.77-5.39-7.31,0-13.08,12.31-16.93,20.78-6.93,15.01-9.24,20.4-11.54,20.4-1.92,0-2.31-2.69-.38-7.31l3.08-10.01c2.69-8.47,6.16-15.39,9.62-22.7.38-1.15,0-1.15-.77-1.15-1.92,0-4.23,3.46-6.93,3.46-1.54,0-2.31.77-2.69,2.31l-.77,1.92c-.77,1.54-1.15,1.54-1.54-.38-1.15-4.23-3.08-7.31-7.31-7.31-10.39,0-20.78,16.16-25.01,30.4-3.08,10.39-13.47,11.93-18.86,11.93-3.46,0-6.16-2.31-6.16-7.7,0-1.54,0-3.85.38-6.16.38-1.92,2.31-3.85,3.85-4.23,13.08-3.46,20.78-10.39,20.78-16.93,0-4.62-3.85-7.31-8.85-7.31-9.62,0-18.09,11.16-22.32,22.32-4.23.77-9.62,2.31-13.47,5l19.63-60.03h20.4l.77-2.31h-59.26l-.77,2.31h35.4l-9.24,6.93-20.78,63.88c-37.71,35.02-64.65,76.97-59.26,98.9,1.92,6.93,5.39,9.24,12.31,7.31,25.4-6.16,41.18-55.8,54.26-95.82l5.77-18.86c3.85-2.31,9.24-4.62,13.47-5.39ZM501.09,150.89l-3.08,10.01c-17.32,53.49-25.4,87.36-43.1,91.97-5,.77-8.47-.77-10.01-5.77-5-20.78,20.4-61.57,56.18-96.21ZM652.71,147.81c0-1.92.77-3.85,3.46-3.85,2.31,0,3.08,1.15,3.85,3.85.38,5,3.46,8.08,6.93,8.08,4.23,0,5.77-2.69,5.77-7.7,0-3.08-1.54-5.77-3.85-8.85l-2.31-3.46c-3.08-5-4.62-8.08-4.62-12.31,0-8.47,6.93-13.85,15.01-13.85,6.93,0,10.78,4.62,10.78,8.08,0,2.69-1.54,3.85-3.85,3.85-1.92,0-3.46-1.15-3.85-3.46-.38-3.85-2.31-6.54-5.39-6.54-3.85,0-5.77,2.69-5.77,6.93,0,3.08,1.54,6.16,3.85,9.62l1.92,3.46c3.46,5,5,8.47,5,12.7,0,7.7-5.77,13.85-14.24,13.85-6.93,0-12.7-4.62-12.7-10.39ZM538.04,130.49c3.08-9.24,8.08-18.86,13.47-18.86,2.31,0,3.08,2.31,3.08,5,0,6.93-4.23,13.47-13.85,16.55-1.92.38-2.69-.77-2.69-2.69ZM588.83,129.72c-3.85,10.39-11.16,21.55-16.55,21.55-2.31,0-3.08-1.54-3.08-6.54,0-11.93,9.24-32.33,17.7-32.33,3.08,0,3.85,2.31,3.85,6.93,0,2.31-.38,6.16-1.92,10.39Z"/>
</svg>