<?xml version="1.0" encoding="UTF-8"?>
<svg id="Layer_2" data-name="Layer 2" xmlns="http://www.w3.org/2000/svg" viewBox="0 0 182.79 150.03">
  <path d="M.21,90.61l-.21-1.59c3.17,1.48,7.51,2.33,11.1,2.33,23.05,0,40.71-19.03,62.38-41.23l9.3-9.52h-13.53l.95-1.06h13.64L120.21,2.43h1.69c3.59,0,6.13-.95,7.4-2.43h1.59l-34.36,54.45c-7.72,12.48-9.94,15.23-9.94,18.82,0,2.43,1.48,3.38,3.7,3.38,5.92,0,10.68-5.81,17.66-16.18l2.01-2.96c.42-.32.85-.32,1.06,0l-2.01,2.96c-7.08,10.36-12.16,17.13-18.82,17.13-5.18,0-6.45-5.08-6.45-8.14,0-5.5,2.22-12.16,10.78-25.16l2.43-3.7h-12.58l-10.15,10.36c-22.1,22.52-40.18,41.66-63.01,41.66-3.91,0-7.61-.53-11-2.01ZM97.69,39.54L121.27,3.7h-.85l-35,35.84h12.26Z"/>
  <path d="M154.83,20.19l-2.38.81c-3.54.68-7.37-.52-10.53,1.4l.15,1.94-3.07-.15-.95,9.59c-.59,0-.43-7.18-.97-8.05-.42-.31-4.89,5.32-5.13,6.1l-1.25.28,3.35-6.22c-1.77-.66,1.28-2.55.69-3.5-.1-.14-2.51-1.03-2.81-1.08-1.82-.29-4.15.18-6.06-.04-.39-.05-1.42-.23-.86-.81.29-.3,5.35-.7,6.31-.9,1.04-.22,1.92-.77,2.99-.76l-.56-2.77,2.93.86c1.08-.99.42-5.6,1.37-6.96l.94,6.49c.24.37.81.15,1.13.01,1.01-.46,3.98-3.88,4.81-4.91.78-.97,1.33-2.75,2.55-2.98.33.41-.23,1.32-.44,1.71-.87,1.62-2.97,4.07-3.55,5.71-.76,2.14.08,2.85,2.07,3.38.65.17,4.21.85,4.7.85h4.57ZM136.17,57.51l-3.49,5.39c-4.96,7.72-8.88,13.54-13.63,13.54-2.01,0-3.18-1.06-3.18-2.96,0-2.54,1.38-4.55,10.26-18.51l8.56-13.53-.31-.85h-13.22l-11.21,16.92c.21.42.64.42,1.06,0l10.57-15.96h4.76l.32.74-5.39,8.45c-4.23,6.56-7.3,12.48-7.3,19.04,0,3.17.74,7.5,5.08,7.5,5.39,0,9.83-6.87,14.48-14.06l3.7-5.71c-.21-.21-.63-.21-1.06,0Z"/>
  <path d="M76,143.26c0-15.86,25.38-40.07,56.57-57.2l24.63-39.44,8.88-4.97h-25.69l.63-1.06h41.76l-.63,1.06h-13.22l-24.63,39.54c3.07-1.38,6.24-2.75,9.52-3.91l.11.95c-3.28,1.27-6.98,2.85-10.68,4.55l-7.19,11.63c-15.54,24.95-34.68,55.61-52.86,55.61-5.07,0-7.19-2.33-7.19-6.77ZM82.56,148.97c12.69,0,24.11-21.36,44.83-54.56l4.12-6.66c-30.24,17.13-54.45,41.02-54.45,55.61,0,4.02,2.01,5.6,5.5,5.6Z"/>
</svg>